#N canvas 22 22 1276 731 10;
#X obj 413 111 openpanel;
#X msg 412 136 open \$1;
#X msg 423 171 auto \$1;
#X obj 421 216 pix_film;
#X obj 420 87 bng 15 250 50 0 empty empty empty 17 7 0 10 -262144 -1
-1;
#X obj 473 150 tgl 15 0 empty empty empty 17 7 0 10 -262144 -1 -1 0
1;
#X obj 453 251 pix_mix 0;
#X obj 557 210 hsl 128 15 0 1 0 0 empty empty empty -2 -8 0 10 -262144
-1 -1 6100 1;
#X obj 505 120 openpanel;
#X msg 504 145 open \$1;
#X msg 529 176 auto \$1;
#X obj 490 215 pix_film;
#X obj 512 96 bng 15 250 50 0 empty empty empty 17 7 0 10 -262144 -1
-1;
#X obj 579 155 tgl 15 0 empty empty empty 17 7 0 10 -262144 -1 -1 0
1;
#X obj 458 -54 gemhead 2;
#X obj 455 9 spigot;
#X obj 495 -28 tgl 15 0 empty empty empty 17 7 0 10 -262144 -1 -1 1
1;
#X floatatom 479 42 5 0 0 0 - - -;
#X floatatom 518 42 5 0 0 0 - - -;
#X floatatom 557 42 5 0 0 0 - - -;
#X obj 455 70 rotateXYZ 0 0 0;
#X obj 499 333 pix_lumaoffset;
#X floatatom 659 252 5 0 0 0 - - -;
#X floatatom 607 294 5 0 0 0 - - -;
#X msg 529 277 smooth \$1;
#X msg 531 303 fill \$1;
#X obj 500 277 tgl 15 0 empty empty empty 17 7 0 10 -262144 -1 -1 0
1;
#X obj 457 298 tgl 15 0 empty empty empty 17 7 0 10 -262144 -1 -1 1
1;
#X obj 522 250 tgl 15 0 empty empty empty 17 7 0 10 -262144 -1 -1 0
1;
#X obj 496 362 pix_gain;
#X obj 434 339 tgl 15 0 empty empty empty 17 7 0 10 -262144 -1 -1 0
1;
#X obj 495 388 pix_duotone;
#X obj 435 370 tgl 15 0 empty empty empty 17 7 0 10 -262144 -1 -1 0
1;
#X obj 462 553 tgl 15 0 empty empty empty 17 7 0 10 -262144 -1 -1 0
1;
#X obj 470 410 tgl 15 0 empty empty empty 17 7 0 10 -262144 -1 -1 0
1;
#X obj 466 603 tgl 15 0 empty empty empty 17 7 0 10 -262144 -1 -1 0
1;
#X obj 511 611 pix_halftone 1 1 1;
#X msg 710 293 0.2 0 0.1;
#X msg 710 320 1 0 0;
#X msg 711 348 0 0 1;
#X obj 519 576 pix_kaleidoscope 10 13 10 10 10 10 10;
#X obj 517 534 pix_puzzle;
#X obj 458 521 tgl 15 0 empty empty empty 17 7 0 10 -262144 -1 -1 0
1;
#X obj 495 461 pix_roll;
#X obj 517 412 tgl 15 0 empty empty empty 17 7 0 10 -262144 -1 -1 0
1;
#X floatatom 570 434 5 0 0 0 - - -;
#X msg 511 437 axis \$1;
#X obj 529 499 pix_zoom;
#X obj 454 488 tgl 15 0 empty empty empty 17 7 0 10 -262144 -1 -1 0
1;
#X floatatom 648 479 5 0 0 0 - - -;
#X msg 556 467 100 100;
#X obj 499 888 pix_texture;
#X obj 466 667 tgl 15 0 empty empty empty 17 7 0 10 -262144 -1 -1 0
1;
#X obj 463 703 tgl 15 0 empty empty empty 17 7 0 10 -262144 -1 -1 0
1;
#X floatatom 637 720 5 0 0 0 - - -;
#X obj 515 790 pix_tIIR 2 2;
#X obj 637 740 * 0.01;
#X obj 684 691 unpack 30 60 10 50 50 -20;
#X floatatom 686 720 5 0 0 0 - - -;
#X obj 686 740 * 0.01;
#X floatatom 733 720 5 0 0 0 - - -;
#X obj 733 741 * 0.01;
#X floatatom 778 720 5 0 0 0 - - -;
#X obj 778 740 * 0.01;
#X floatatom 825 719 5 0 0 0 - - -;
#X obj 825 739 * 0.01;
#X floatatom 870 720 5 0 0 0 - - -;
#X obj 870 740 * 0.01;
#X msg 684 645 bang;
#X obj 684 667 pack 30 60 10 50 50 -20;
#X obj 450 994 sphere 8 30 10;
#X obj 512 823 pix_delay;
#X floatatom 580 791 5 0 0 0 - - -;
#X obj 457 791 tgl 15 0 empty empty empty 17 7 0 10 -262144 -1 -1 0
1;
#X obj 499 863 pix_motionblur;
#X obj 596 849 / 100;
#X floatatom 607 821 5 0 0 0 - - -;
#X obj 474 838 tgl 15 0 empty empty empty 17 7 0 10 -262144 -1 -1 1
1;
#X obj 570 933 spigot;
#X obj 627 894 tgl 15 0 empty empty empty 17 7 0 10 -262144 -1 -1 1
1;
#X obj 478 926 spigot;
#X obj 464 893 tgl 15 0 empty empty empty 17 7 0 10 -262144 -1 -1 0
1;
#X obj 574 965 cube 12 12;
#X obj 767 442 pack;
#X obj 821 442 t b f;
#X floatatom 767 403 4 0 100 0 - - -;
#X floatatom 819 403 4 0 100 0 - - -;
#X obj 767 422 * 0.01;
#X obj 819 422 * 0.01;
#X obj 916 441 pack;
#X obj 970 441 t b f;
#X floatatom 916 402 4 0 100 0 - - -;
#X floatatom 968 402 4 0 100 0 - - -;
#X obj 916 421 * 0.01;
#X obj 968 421 * 0.01;
#X floatatom 686 405 5 0 0 0 - - -;
#X obj 685 442 f;
#X floatatom 729 404 5 0 0 0 - - -;
#X obj 728 441 f;
#X floatatom 874 405 5 0 0 0 - - -;
#X obj 873 442 f;
#X floatatom 1013 404 5 0 0 0 - - -;
#X obj 1012 441 f;
#X floatatom 1055 407 5 0 0 0 - - -;
#X obj 1054 444 f;
#X obj 134 -8 adc~;
#X obj 133 50 fiddle~;
#X floatatom 145 110 5 0 0 0 - - -;
#X floatatom 197 95 5 0 0 0 - - -;
#X obj 151 154 mtof;
#X obj 698 123 gemwin;
#X msg 717 71 create;
#X msg 776 97 destroy;
#X msg 775 124 reset;
#X obj 658 75 tgl 15 0 empty empty empty 17 7 0 10 -262144 -1 -1 1
1;
#X msg 727 39 dimen 1280 750;
#X obj 333 865 translateXYZ 0 0 0;
#X floatatom 357 792 5 0 0 0 - - -;
#X floatatom 372 756 5 0 0 0 - - -;
#X floatatom 392 727 5 0 0 0 - - -;
#X obj 263 295 tgl 15 0 empty empty empty 17 7 0 10 -262144 -1 -1 0
1;
#X obj 515 721 pix_dot 500;
#X floatatom 579 682 5 0 0 0 - - -;
#X obj 791 342 loadbang;
#X obj 156 197 / 100;
#X floatatom 177 221 5 0 0 0 - - -;
#X obj 253 149 * 10;
#X obj 335 241 unpack;
#X floatatom 299 273 5 0 0 0 - - -;
#X floatatom 349 275 5 0 0 0 - - -;
#X floatatom 622 154 5 0 0 0 - - -;
#X obj 1008 -15 tgl 15 0 empty empty empty 17 7 0 10 -262144 -1 -1
1 1;
#X obj 1009 33 f;
#X obj 1084 -12 tgl 15 0 empty empty empty 17 7 0 10 -262144 -1 -1
1 1;
#X obj 1085 36 f;
#X obj 1085 9 metro 50;
#X obj 1160 -16 tgl 15 0 empty empty empty 17 7 0 10 -262144 -1 -1
1 1;
#X obj 1161 32 f;
#X obj 1161 5 metro 50;
#X obj 330 12 tgl 15 0 empty empty empty 17 7 0 10 -262144 -1 -1 1
1;
#X obj 331 60 f;
#X obj 309 162 0;
#X obj 305 138 bng 15 250 50 0 empty empty empty 17 7 0 10 -262144
-1 -1;
#X floatatom 359 149 5 0 0 0 - - -;
#X obj 933 66 0;
#X obj 929 42 bng 15 250 50 0 empty empty empty 17 7 0 10 -262144 -1
-1;
#X floatatom 982 161 5 0 0 0 - - -;
#X obj 1042 33 + 1;
#X floatatom 915 122 5 0 0 0 - - -;
#X obj 1009 6 metro 50;
#X obj 994 59 sel 6000;
#X obj 1010 88 / 30;
#X obj 1078 60 sel 6000;
#X obj 1164 58 sel 6000;
#X obj 1082 87 / 30;
#X obj 1161 85 / 30;
#X obj 329 36 metro 50;
#X floatatom 1105 107 5 0 0 0 - - -;
#X obj 984 126 expr (sin($f1)*$f2)+$f3;
#X obj 1057 85 0;
#X obj 1053 61 bng 15 250 50 0 empty empty empty 17 7 0 10 -262144
-1 -1;
#X obj 1136 87 0;
#X obj 1132 63 bng 15 250 50 0 empty empty empty 17 7 0 10 -262144
-1 -1;
#X obj 1194 32 + 1;
#X obj 1118 36 + 1;
#X floatatom 1206 137 5 0 0 0 - - -;
#X obj 1059 167 expr (sin($f1)*$f2)+$f3;
#X floatatom 1231 208 5 0 0 0 - - -;
#X obj 1071 193 expr (sin($f1)*$f2)+$f3;
#X floatatom 398 -7 5 0 0 0 - - -;
#X obj 364 61 + 0.5;
#X obj 316 90 sel 8175;
#X floatatom 714 189 5 0 0 0 - - -;
#X floatatom 752 190 5 0 0 0 - - -;
#X floatatom 791 189 5 0 0 0 - - -;
#X obj 714 271 pack 0 0 0;
#X obj 248 120 / 20;
#X floatatom 204 -14 5 0 0 0 - - -;
#X floatatom 254 -11 5 0 0 0 - - -;
#X obj 176 24 bp~;
#X obj 229 48 lop~;
#X floatatom 271 20 5 0 0 0 - - -;
#X obj 606 242 +;
#X msg 616 272 1.6;
#X msg 664 232 107;
#X obj 951 238 tgl 15 0 empty empty empty 17 7 0 10 -262144 -1 -1 1
1;
#X obj 952 286 f;
#X obj 876 319 0;
#X obj 872 295 bng 15 250 50 0 empty empty empty 17 7 0 10 -262144
-1 -1;
#X obj 985 286 + 1;
#X obj 937 312 sel 20;
#X obj 952 259 metro 500;
#X msg 1218 101 1;
#X connect 0 0 1 0;
#X connect 1 0 3 0;
#X connect 2 0 3 0;
#X connect 3 0 6 0;
#X connect 3 1 127 0;
#X connect 4 0 0 0;
#X connect 5 0 2 0;
#X connect 6 0 21 0;
#X connect 7 0 6 2;
#X connect 8 0 9 0;
#X connect 9 0 11 0;
#X connect 10 0 11 0;
#X connect 11 0 6 1;
#X connect 12 0 8 0;
#X connect 13 0 10 0;
#X connect 14 0 15 0;
#X connect 15 0 20 0;
#X connect 16 0 15 1;
#X connect 17 0 20 1;
#X connect 18 0 20 2;
#X connect 19 0 20 3;
#X connect 20 0 3 0;
#X connect 20 0 11 0;
#X connect 21 0 29 0;
#X connect 22 0 182 1;
#X connect 23 0 21 2;
#X connect 24 0 21 0;
#X connect 25 0 21 0;
#X connect 26 0 25 0;
#X connect 27 0 21 0;
#X connect 28 0 24 0;
#X connect 29 0 31 0;
#X connect 30 0 29 0;
#X connect 31 0 43 0;
#X connect 32 0 31 0;
#X connect 33 0 40 0;
#X connect 34 0 43 0;
#X connect 35 0 36 0;
#X connect 36 0 121 0;
#X connect 37 0 31 1;
#X connect 38 0 31 2;
#X connect 39 0 31 3;
#X connect 40 0 36 0;
#X connect 41 0 40 0;
#X connect 42 0 41 0;
#X connect 43 0 47 0;
#X connect 44 0 46 0;
#X connect 45 0 43 1;
#X connect 46 0 43 0;
#X connect 47 0 41 0;
#X connect 48 0 47 0;
#X connect 50 0 47 1;
#X connect 51 0 78 0;
#X connect 51 0 80 0;
#X connect 53 0 121 0;
#X connect 54 0 56 0;
#X connect 55 0 71 0;
#X connect 56 0 55 1;
#X connect 57 0 54 0;
#X connect 57 1 58 0;
#X connect 57 2 60 0;
#X connect 57 3 62 0;
#X connect 57 4 64 0;
#X connect 57 5 66 0;
#X connect 58 0 59 0;
#X connect 59 0 55 2;
#X connect 60 0 61 0;
#X connect 61 0 55 3;
#X connect 62 0 63 0;
#X connect 63 0 55 4;
#X connect 64 0 65 0;
#X connect 65 0 55 5;
#X connect 66 0 67 0;
#X connect 67 0 55 6;
#X connect 68 0 69 0;
#X connect 69 0 57 0;
#X connect 71 0 74 0;
#X connect 72 0 71 1;
#X connect 73 0 71 0;
#X connect 74 0 51 0;
#X connect 75 0 74 1;
#X connect 76 0 75 0;
#X connect 77 0 74 0;
#X connect 78 0 82 0;
#X connect 79 0 78 1;
#X connect 80 0 116 0;
#X connect 81 0 80 1;
#X connect 83 0 40 3;
#X connect 84 0 83 0;
#X connect 84 1 83 1;
#X connect 85 0 87 0;
#X connect 86 0 88 0;
#X connect 87 0 83 0;
#X connect 88 0 84 0;
#X connect 89 0 40 5;
#X connect 90 0 89 0;
#X connect 90 1 89 1;
#X connect 91 0 93 0;
#X connect 92 0 94 0;
#X connect 93 0 89 0;
#X connect 94 0 90 0;
#X connect 95 0 96 0;
#X connect 96 0 40 1;
#X connect 97 0 98 0;
#X connect 98 0 40 2;
#X connect 99 0 100 0;
#X connect 100 0 40 4;
#X connect 101 0 102 0;
#X connect 102 0 40 6;
#X connect 103 0 104 0;
#X connect 104 0 40 7;
#X connect 105 0 179 0;
#X connect 105 1 179 0;
#X connect 106 2 107 0;
#X connect 106 3 108 0;
#X connect 107 0 109 0;
#X connect 107 0 182 0;
#X connect 108 0 126 0;
#X connect 108 0 176 0;
#X connect 109 0 124 0;
#X connect 111 0 110 0;
#X connect 112 0 110 0;
#X connect 113 0 110 0;
#X connect 114 0 110 0;
#X connect 115 0 110 0;
#X connect 116 0 70 0;
#X connect 117 0 116 1;
#X connect 118 0 116 2;
#X connect 119 0 116 3;
#X connect 120 0 77 0;
#X connect 120 0 73 0;
#X connect 120 0 53 0;
#X connect 120 0 35 0;
#X connect 120 0 33 0;
#X connect 120 0 42 0;
#X connect 120 0 48 0;
#X connect 120 0 34 0;
#X connect 120 0 32 0;
#X connect 120 0 30 0;
#X connect 120 0 27 0;
#X connect 121 0 55 0;
#X connect 122 0 121 1;
#X connect 123 0 50 0;
#X connect 124 0 125 0;
#X connect 127 0 128 0;
#X connect 127 1 129 0;
#X connect 130 0 3 1;
#X connect 131 0 149 0;
#X connect 132 0 147 0;
#X connect 132 0 150 0;
#X connect 133 0 135 0;
#X connect 134 0 152 0;
#X connect 134 0 164 0;
#X connect 135 0 134 0;
#X connect 136 0 138 0;
#X connect 137 0 153 0;
#X connect 137 0 163 0;
#X connect 138 0 137 0;
#X connect 139 0 156 0;
#X connect 140 0 170 0;
#X connect 140 0 171 0;
#X connect 141 0 140 0;
#X connect 142 0 141 0;
#X connect 144 0 132 0;
#X connect 145 0 144 0;
#X connect 147 0 132 1;
#X connect 149 0 132 0;
#X connect 150 0 145 0;
#X connect 150 1 151 0;
#X connect 151 0 148 0;
#X connect 151 0 158 0;
#X connect 152 0 160 0;
#X connect 152 1 154 0;
#X connect 153 0 162 0;
#X connect 153 1 155 0;
#X connect 154 0 166 0;
#X connect 155 0 168 0;
#X connect 156 0 140 0;
#X connect 157 0 158 1;
#X connect 157 0 158 2;
#X connect 158 0 146 0;
#X connect 158 0 175 0;
#X connect 159 0 134 0;
#X connect 160 0 159 0;
#X connect 161 0 137 0;
#X connect 162 0 161 0;
#X connect 163 0 137 1;
#X connect 164 0 134 1;
#X connect 165 0 166 1;
#X connect 165 0 166 2;
#X connect 166 0 175 1;
#X connect 167 0 168 1;
#X connect 167 0 168 2;
#X connect 168 0 175 2;
#X connect 169 0 156 1;
#X connect 170 0 140 1;
#X connect 171 0 142 0;
#X connect 171 1 3 1;
#X connect 171 1 143 0;
#X connect 171 1 11 1;
#X connect 172 0 175 0;
#X connect 173 0 175 1;
#X connect 174 0 175 2;
#X connect 175 0 29 2;
#X connect 177 0 179 1;
#X connect 178 0 179 2;
#X connect 179 0 180 0;
#X connect 180 0 106 0;
#X connect 181 0 180 1;
#X connect 182 0 21 1;
#X connect 183 0 23 0;
#X connect 184 0 22 0;
#X connect 185 0 191 0;
#X connect 186 0 189 0;
#X connect 186 0 190 0;
#X connect 187 0 186 0;
#X connect 188 0 187 0;
#X connect 189 0 186 1;
#X connect 190 0 188 0;
#X connect 190 1 95 0;
#X connect 191 0 186 0;
#X connect 192 0 157 0;
#X connect 192 0 165 0;
#X connect 192 0 167 0;
