#N canvas 166 22 1109 712 10;
#X obj -5524 -759 hradio 10 1 0 64 empty empty empty 0 -8 0 10 -262144
-1 -1 0;
#X obj -5524 -743 select 0 1 2 3 4 5 6 7 8 9 10 11 12 13 14 15 16 17
18 19 20 21 22 23 24 25 26 27 28 29 30 31 32 33 34 35 36 37 38 39 40
41 42 43 44 45 46 47 48 49 50 51 52 53 54 55 56 57 58 59 60 61 62 63
;
#X obj -5365 -1011 noise~;
#X obj -5278 -1071 line~;
#X obj -5346 -917 *~;
#X floatatom -5320 -911 5 0 0 0 - - -;
#X obj -5347 -860 *~ 0;
#X floatatom -5291 -867 5 0 0 0 - - -;
#X obj -5347 -888 bp~ 400;
#X floatatom -5284 -906 5 0 0 0 - - -;
#X msg -5278 -1093 1 \, 0 50;
#X obj -5365 -968 +~;
#X obj -5313 -1011 osc~ 440;
#X floatatom -5313 -1034 5 0 0 0 - - -;
#X obj -5313 -989 *~;
#X floatatom -5287 -989 5 0 0 0 - - -;
#X obj -5365 -946 hip~ 2000;
#X obj -5365 -989 *~ 0.15;
#X obj -5533 -1011 noise~;
#X obj -5386 -1069 line~;
#X obj -5514 -917 *~;
#X floatatom -5488 -911 5 0 0 0 - - -;
#X obj -5515 -862 *~ 0;
#X floatatom -5459 -869 5 0 0 0 - - -;
#X obj -5515 -888 bp~ 400;
#X floatatom -5452 -906 5 0 0 0 - - -;
#X obj -5533 -968 +~;
#X obj -5481 -1011 osc~ 440;
#X floatatom -5481 -1034 5 0 0 0 - - -;
#X obj -5481 -989 *~;
#X floatatom -5455 -989 5 0 0 0 - - -;
#X obj -5533 -989 *~ 0.15;
#N canvas 0 22 450 278 (subpatch) 0;
#X array oscope 100 float 3;
#A 0 -0.182564 -0.181612 -0.180645 -0.179672 -0.178691 -0.177697 -0.176697
-0.175687 -0.174667 -0.173641 -0.172603 -0.171557 -0.170505 -0.16944
-0.168369 -0.167291 -0.166201 -0.165106 -0.164002 -0.162888 -0.161769
-0.160641 -0.159504 -0.158362 -0.157209 -0.15605 -0.154885 -0.15371
-0.152529 -0.151341 -0.150145 -0.148943 -0.147734 -0.146517 -0.145296
-0.144065 -0.142828 -0.141587 -0.140337 -0.139082 -0.137821 -0.136553
-0.13528 -0.134 -0.132715 -0.131425 -0.130128 -0.128825 -0.127519 -0.126205
-0.124887 -0.123565 -0.122236 -0.120903 -0.119565 -0.118222 -0.116876
-0.115523 -0.114167 -0.112807 -0.111441 -0.110073 -0.1087 -0.107323
-0.105942 -0.104558 -0.103169 -0.101778 -0.100383 -0.0989843 -0.0975834
-0.0961781 -0.0947704 -0.0933604 -0.0919463 -0.0905304 -0.0891119 -0.0876902
-0.086267 -0.084841 -0.0834128 -0.0819831 -0.0805507 -0.0791167 -0.0776814
-0.0762435 -0.0748047 -0.0733645 -0.0719225 -0.0704797 -0.0690356 -0.0675904
-0.0661446 -0.0646976 -0.0632501 -0.0618021 -0.0603533 -0.0589043 -0.057455
-0.0560055;
#X coords 0 1 99 -1 200 140 1;
#X restore -4746 -1244 graph;
#X obj -4862 -912 tabwrite~ oscope;
#X obj -4943 -986 phasor~;
#X floatatom -4943 -1009 5 0 0 0 - - -;
#X obj -4959 -824 dac~;
#X obj -4862 -933 metro 100;
#X obj -4862 -951 tgl 15 0 empty empty empty 17 7 0 10 -262144 -1 -1
0 1;
#X obj -4943 -963 *~;
#X obj -4943 -940 -~;
#X floatatom -4915 -963 5 0 0 0 - - -;
#X obj -4915 -940 / 2;
#X obj -4943 -917 /~ -1;
#X obj -4958 -896 +~;
#X obj -4982 -942 osc~;
#X floatatom -4982 -964 5 0 0 0 - - -;
#X obj -4982 -918 *~;
#X floatatom -4952 -1033 5 0 0 0 - - -;
#X obj -5616 -774 tgl 15 0 empty empty empty 17 7 0 10 -262144 -1 -1
0 1;
#X obj -5616 -727 float;
#X floatatom -5616 -667 5 0 0 0 - - -;
#X obj -5577 -727 + 1;
#X floatatom -5565 -704 5 0 0 0 - - -;
#X obj -5082 -1078 line~;
#X obj -4958 -868 *~;
#X obj -4982 -987 * 1;
#X floatatom -4893 -877 5 0 0 0 - - -;
#X obj -4920 -854 bp~ 400;
#X floatatom -4857 -872 5 0 0 0 - - -;
#X obj -5506 -831 dac~;
#X obj -5351 -831 dac~;
#X obj -5533 -946 lop~ 2000;
#X obj -5524 -678 bng 15 250 50 0 empty empty empty 17 7 0 10 -262144
-1 -1;
#X obj -5508 -678 bng 15 250 50 0 empty empty empty 17 7 0 10 -262144
-1 -1;
#X obj -5492 -678 bng 15 250 50 0 empty empty empty 17 7 0 10 -262144
-1 -1;
#X obj -5476 -678 bng 15 250 50 0 empty empty empty 17 7 0 10 -262144
-1 -1;
#X obj -5460 -678 bng 15 250 50 0 empty empty empty 17 7 0 10 -262144
-1 -1;
#X obj -5444 -678 bng 15 250 50 0 empty empty empty 17 7 0 10 -262144
-1 -1;
#X obj -5428 -678 bng 15 250 50 0 empty empty empty 17 7 0 10 -262144
-1 -1;
#X obj -5412 -678 bng 15 250 50 0 empty empty empty 17 7 0 10 -262144
-1 -1;
#X obj -5396 -678 bng 15 250 50 0 empty empty empty 17 7 0 10 -262144
-1 -1;
#X obj -5380 -678 bng 15 250 50 0 empty empty empty 17 7 0 10 -262144
-1 -1;
#X obj -5364 -678 bng 15 250 50 0 empty empty empty 17 7 0 10 -262144
-1 -1;
#X obj -5348 -678 bng 15 250 50 0 empty empty empty 17 7 0 10 -262144
-1 -1;
#X obj -5332 -678 bng 15 250 50 0 empty empty empty 17 7 0 10 -262144
-1 -1;
#X obj -5316 -678 bng 15 250 50 0 empty empty empty 17 7 0 10 -262144
-1 -1;
#X obj -5300 -678 bng 15 250 50 0 empty empty empty 17 7 0 10 -262144
-1 -1;
#X obj -5284 -678 bng 15 250 50 0 empty empty empty 17 7 0 10 -262144
-1 -1;
#X obj -5165 -951 noise~;
#X obj -5181 -1073 line~;
#X obj -5165 -928 *~;
#X floatatom -5109 -933 5 0 0 0 - - -;
#X obj -5165 -882 *~ 0;
#X floatatom -5125 -880 5 0 0 0 - - -;
#X obj -5165 -906 hip~ 400;
#X obj -5173 -834 dac~;
#X msg -5106 -968 3612;
#X msg -5238 -1043 200;
#X msg -5238 -1012 5;
#X msg -5259 -957 280;
#X msg -5226 -936 0.04;
#X msg -5474 -1080 120;
#X msg -5428 -1057 3;
#X msg -5454 -948 82;
#X msg -5416 -945 0.05;
#X obj -4961 -1203 vsl 15 128 0 127 0 0 empty empty empty 0 -9 0 10
-262144 -1 -1 0 1;
#X obj -4943 -1203 vsl 15 128 0 127 0 0 empty empty empty 0 -9 0 10
-262144 -1 -1 0 1;
#X obj -4924 -1203 vsl 15 128 0 127 0 0 empty empty empty 0 -9 0 10
-262144 -1 -1 0 1;
#X obj -4906 -1203 vsl 15 128 0 127 0 0 empty empty empty 0 -9 0 10
-262144 -1 -1 0 1;
#X obj -4888 -1203 vsl 15 128 0 127 0 0 empty empty empty 0 -9 0 10
-262144 -1 -1 0 1;
#X obj -4869 -1203 vsl 15 128 0 127 0 0 empty empty empty 0 -9 0 10
-262144 -1 -1 0 1;
#X obj -4851 -1203 vsl 15 128 0 127 0 0 empty empty empty 0 -9 0 10
-262144 -1 -1 0 1;
#X obj -4832 -1203 vsl 15 128 0 127 0 0 empty empty empty 0 -9 0 10
-262144 -1 -1 0 1;
#X msg -5082 -1100 1 \, 0 100;
#X floatatom -4897 -1235 5 0 0 0 - - -;
#X obj -4896 -1053 mtof;
#X obj -5616 -701 mod 16;
#X msg -5179 -1097 1 \, 0 60;
#X msg -5386 -1091 1 \, 0 65;
#X obj -5616 -752 metro 125;
#X obj -5557 -1138 qlist;
#X msg -5551 -1158 bang;
#X obj -5445 -1180 textfile;
#X msg -5557 -1178 read 1.txt;
#X msg -5383 -1201 write 1.txt;
#X obj -5445 -1152 print a;
#X floatatom -5560 -1078 5 0 0 0 - - -;
#X msg -5387 -1169 clear;
#X msg -5534 -1335 add;
#X obj -5493 -1484 tgl 15 0 empty empty empty 17 7 0 10 -262144 -1
-1 0 1;
#X floatatom -5469 -1485 5 0 0 0 - - -;
#X obj -5493 -1462 metro 125;
#X obj -5431 -1335 random 30;
#X obj -5431 -1312 + 40;
#X obj -5539 -1287 route list;
#X obj -5308 -1302 sel 1;
#X msg -5475 -1201 clear \, rewind;
#X obj -5534 -1311 pack s f s f;
#X msg -5503 -1335 symbol tom;
#X obj -5489 -1426 random 3;
#X obj -5489 -1383 * 125;
#X obj -5489 -1405 + 1;
#X obj -5489 -1360 f;
#X obj -5560 -1100 r bd;
#X obj -5518 -1104 r bdlength;
#X obj -5630 -1100 r bdpitch;
#X obj -5181 -1148 r hihat;
#X obj -5182 -1124 r hhlength;
#X obj -5181 -1170 r hhpitch;
#X obj -5282 -1175 r snrpitch;
#X obj -5282 -1153 r snrhat;
#X obj -5283 -1129 r snrlength;
#X obj -4950 -1303 r syn1pitch;
#X obj -4950 -1281 r syn1hat;
#X obj -4951 -1257 r syn1length;
#X connect 0 0 1 0;
#X connect 1 0 63 0;
#X connect 1 1 64 0;
#X connect 1 2 65 0;
#X connect 1 3 66 0;
#X connect 1 4 67 0;
#X connect 1 5 68 0;
#X connect 1 6 69 0;
#X connect 1 7 70 0;
#X connect 1 8 71 0;
#X connect 1 9 72 0;
#X connect 1 10 73 0;
#X connect 1 11 74 0;
#X connect 1 12 75 0;
#X connect 1 13 76 0;
#X connect 1 14 77 0;
#X connect 1 15 78 0;
#X connect 2 0 17 0;
#X connect 3 0 4 1;
#X connect 4 0 8 0;
#X connect 5 0 8 1;
#X connect 6 0 61 0;
#X connect 6 0 61 1;
#X connect 7 0 6 1;
#X connect 8 0 6 0;
#X connect 9 0 8 2;
#X connect 10 0 3 0;
#X connect 11 0 16 0;
#X connect 12 0 14 0;
#X connect 13 0 12 0;
#X connect 14 0 11 1;
#X connect 15 0 14 1;
#X connect 16 0 4 0;
#X connect 17 0 11 0;
#X connect 18 0 31 0;
#X connect 19 0 20 1;
#X connect 20 0 24 0;
#X connect 21 0 24 1;
#X connect 22 0 60 0;
#X connect 22 0 60 1;
#X connect 23 0 22 1;
#X connect 24 0 22 0;
#X connect 25 0 24 2;
#X connect 26 0 62 0;
#X connect 27 0 29 0;
#X connect 28 0 27 0;
#X connect 29 0 26 1;
#X connect 30 0 29 1;
#X connect 31 0 26 0;
#X connect 34 0 39 0;
#X connect 35 0 34 0;
#X connect 37 0 33 0;
#X connect 38 0 37 0;
#X connect 39 0 40 0;
#X connect 40 0 43 0;
#X connect 41 0 42 0;
#X connect 41 0 39 1;
#X connect 41 0 47 1;
#X connect 42 0 40 1;
#X connect 43 0 44 1;
#X connect 44 0 33 0;
#X connect 44 0 55 0;
#X connect 45 0 47 0;
#X connect 46 0 45 0;
#X connect 47 0 44 0;
#X connect 48 0 35 0;
#X connect 48 0 56 0;
#X connect 49 0 110 0;
#X connect 50 0 52 0;
#X connect 50 0 107 0;
#X connect 52 0 50 1;
#X connect 53 0 107 1;
#X connect 54 0 55 1;
#X connect 55 0 58 0;
#X connect 56 0 46 0;
#X connect 57 0 58 1;
#X connect 58 0 36 0;
#X connect 58 0 36 1;
#X connect 59 0 58 2;
#X connect 62 0 20 0;
#X connect 79 0 81 0;
#X connect 80 0 81 1;
#X connect 81 0 85 0;
#X connect 82 0 85 1;
#X connect 83 0 86 0;
#X connect 83 0 86 1;
#X connect 84 0 83 1;
#X connect 85 0 83 0;
#X connect 87 0 82 0;
#X connect 88 0 13 0;
#X connect 89 0 15 0;
#X connect 90 0 5 0;
#X connect 91 0 9 0;
#X connect 92 0 28 0;
#X connect 93 0 30 0;
#X connect 94 0 21 0;
#X connect 95 0 25 0;
#X connect 96 0 106 0;
#X connect 97 0 106 0;
#X connect 98 0 106 0;
#X connect 99 0 106 0;
#X connect 100 0 106 0;
#X connect 101 0 106 0;
#X connect 102 0 106 0;
#X connect 103 0 106 0;
#X connect 104 0 54 0;
#X connect 105 0 96 0;
#X connect 105 0 97 0;
#X connect 105 0 98 0;
#X connect 105 0 99 0;
#X connect 105 0 100 0;
#X connect 105 0 101 0;
#X connect 105 0 102 0;
#X connect 105 0 103 0;
#X connect 106 0 48 0;
#X connect 107 0 51 0;
#X connect 107 0 0 0;
#X connect 108 0 80 0;
#X connect 109 0 19 0;
#X connect 110 0 50 0;
#X connect 112 0 111 0;
#X connect 113 0 116 0;
#X connect 114 0 111 0;
#X connect 115 0 113 0;
#X connect 118 0 113 0;
#X connect 119 0 128 0;
#X connect 120 0 122 0;
#X connect 120 0 126 0;
#X connect 122 0 123 0;
#X connect 122 0 119 0;
#X connect 122 0 129 0;
#X connect 122 0 130 0;
#X connect 123 0 124 0;
#X connect 124 0 128 3;
#X connect 125 0 113 0;
#X connect 126 0 127 0;
#X connect 126 1 115 0;
#X connect 127 0 113 0;
#X connect 128 0 125 0;
#X connect 129 0 128 2;
#X connect 130 0 132 0;
#X connect 131 0 133 0;
#X connect 132 0 131 0;
#X connect 133 0 128 1;
#X connect 134 0 117 0;
