#N canvas 274 128 1257 741 10;
#X obj -35 -371 dac~;
#X obj -38 -503 osc~ 440;
#X floatatom -38 -528 5 0 0 0 - - -;
#X obj 409 1181 pix_texture;
#X obj 25 321 gemwin;
#X msg 2 -465 0;
#X msg 43 -467 1;
#X obj 325 451 pix_lumaoffset;
#X floatatom 485 370 5 0 0 0 - - -;
#X floatatom 453 418 5 0 0 0 - - -;
#X msg 327 389 smooth \$1;
#X msg 329 415 fill \$1;
#X obj 298 389 tgl 15 0 empty empty empty 17 7 0 10 -262144 -1 -1 0
1;
#X obj 283 416 tgl 15 0 empty empty empty 17 7 0 10 -262144 -1 -1 1
1;
#X obj 307 364 tgl 15 0 empty empty empty 17 7 0 10 -262144 -1 -1 0
1;
#X obj 477 -130 snapshot~;
#X obj 493 -217 tgl 15 0 empty empty empty 17 7 0 10 -262144 -1 -1
0 1;
#X obj 488 -155 bng 15 250 50 0 empty empty empty 17 7 0 10 -262144
-1 -1;
#X obj 577 -129 snapshot~;
#X obj 593 -216 tgl 15 0 empty empty empty 17 7 0 10 -262144 -1 -1
0 1;
#X obj 588 -154 bng 15 250 50 0 empty empty empty 17 7 0 10 -262144
-1 -1;
#X obj 578 -93 * 100;
#X obj 582 -59 abs;
#X obj 365 -279 tgl 15 0 empty empty empty 17 7 0 10 -262144 -1 -1
0 1;
#X obj 479 -89 * 300;
#X obj -233 -99 snapshot~;
#X obj -234 -31 expr ($f2*sin($f1));
#X obj -227 -161 tgl 15 0 empty empty empty 17 7 0 10 -262144 -1 -1
0 1;
#X obj -122 -165 snapshot~;
#X obj -123 -97 expr ($f2*sin($f1));
#X obj -116 -227 tgl 15 0 empty empty empty 17 7 0 10 -262144 -1 -1
0 1;
#X obj -122 -197 metro 20;
#X obj -233 -131 metro 20;
#X obj -194 -66 * 0.05;
#X obj 277 -98 expr (sin($f1)*$f2);
#X obj 302 -254 bng 15 250 50 0 empty empty empty 17 7 0 10 -262144
-1 -1;
#X obj 277 -143 + 0.1;
#X obj 347 -249 metro 50;
#X obj 1485 -266 1;
#X obj 1484 -226 value hnj;
#X obj 325 -192 value hnj;
#X obj 590 -187 metro 20;
#X floatatom 476 -312 5 0 0 0 - - -;
#X obj 477 -506 tgl 15 0 empty empty empty 17 7 0 10 -262144 -1 -1
0 1;
#X obj 514 -491 metro 10;
#X obj 548 -381 -;
#X floatatom 546 -426 5 0 0 0 - - -;
#X floatatom -285 89 5 0 0 0 - - -;
#X floatatom -250 237 5 0 0 0 - - -;
#X floatatom -250 177 5 0 0 0 - - -;
#X obj -319 -6 adc~;
#X obj -328 43 delwrite~ buff1 10000;
#X obj -279 113 sig~;
#X obj -288 143 vd~ buff1;
#X obj -296 193 *~;
#X obj -302 250 *~;
#X obj -302 279 hip~ 5;
#X obj -301 317 dac~;
#X obj 322 480 pix_gain;
#X obj 812 402 pack 0 0 0;
#X obj -27 -137 * 0.05;
#X obj 634 399 hsl 128 15 0 127 0 0 empty empty empty -2 -8 0 10 -262144
-1 -1 0 1;
#X obj 629 337 bng 15 250 50 0 empty empty empty 17 7 0 10 -262144
-1 -1;
#X obj 260 457 tgl 15 0 empty empty empty 17 7 0 10 -262144 -1 -1 0
1;
#X msg 631 365 0.6;
#X floatatom 799 448 5 0 0 0 - - -;
#X floatatom 849 460 5 0 0 0 - - -;
#X floatatom 890 464 5 0 0 0 - - -;
#X obj 753 106 tgl 15 0 empty empty empty 17 7 0 10 -262144 -1 -1 1
1;
#X obj 1580 -265 1;
#X obj 1692 -256 1;
#X obj 1579 -226 value iou;
#X obj 1691 -217 value poi;
#X obj 935 159 value poi;
#X obj 1483 -107 1;
#X obj 1482 -68 value klo;
#X obj 1080 120 value klo;
#X obj 758 232 + 0.05;
#X obj 893 202 + 0.04;
#X obj 1038 163 + 0.03;
#X obj 686 -448 / 19;
#X obj 701 -256 tgl 15 0 empty empty empty 17 7 0 10 -262144 -1 -1
0 1;
#X obj 626 -42 expr (sin($f1)*$f2);
#X obj 667 -219 metro 50;
#X floatatom 733 -287 5 0 0 0 - - -;
#X obj 626 -92 + 0.08;
#X obj 1583 -102 1;
#X obj 1582 -63 value uyt;
#X obj 662 -169 value uyt;
#X obj 623 6 abs;
#X obj -185 204 snapshot~;
#X obj -199 138 tgl 15 0 empty empty empty 17 7 0 10 -262144 -1 -1
0 1;
#X obj -172 361 expr ($f2*sin($f1));
#X obj 1707 -111 1;
#X obj 1706 -72 value ert;
#X obj -100 323 * 100;
#X obj -183 242 value ert;
#X obj -176 169 metro 20;
#X obj -142 291 + 0.2;
#X obj 321 506 pix_duotone;
#X obj 490 -188 metro 20;
#X obj 766 134 metro 50;
#X obj -134 474 openpanel;
#X msg -135 499 open \$1;
#X msg -124 534 auto \$1;
#X obj -149 569 pix_film;
#X obj -127 450 bng 15 250 50 0 empty empty empty 17 7 0 10 -262144
-1 -1;
#X obj -74 513 tgl 15 0 empty empty empty 17 7 0 10 -262144 -1 -1 1
1;
#X msg 44 269 create;
#X msg 103 295 destroy;
#X msg 102 322 reset;
#X obj -15 273 tgl 15 0 empty empty empty 17 7 0 10 -262144 -1 -1 1
1;
#X obj 226 537 pix_mix 0;
#X obj 90 584 hsl 128 15 0 1 0 0 empty empty empty -2 -8 0 10 -262144
-1 -1 0 1;
#X floatatom 95 616 5 0 0 0 - - -;
#X obj 261 488 tgl 15 0 empty empty empty 17 7 0 10 -262144 -1 -1 0
1;
#X obj 847 74 tgl 15 0 empty empty empty 17 7 0 10 -262144 -1 -1 1
1;
#X obj 983 54 tgl 15 0 empty empty empty 17 7 0 10 -262144 -1 -1 1
1;
#X obj 988 87 metro 50;
#X obj 858 106 metro 50;
#X floatatom 816 -263 5 0 0 0 - - -;
#X floatatom 870 -258 5 0 0 0 - - -;
#X floatatom 919 -258 5 0 0 0 - - -;
#X floatatom 682 263 5 0 0 0 - - -;
#X obj 770 -373 -;
#X floatatom 777 -437 5 0 0 0 - - -;
#X obj 836 -377 -;
#X floatatom 837 -437 5 0 0 0 - - -;
#X obj 896 -372 -;
#X floatatom 894 -433 5 0 0 0 - - -;
#X obj 722 -529 tgl 15 0 empty empty empty 17 7 0 10 -262144 -1 -1
1 1;
#X obj 729 -499 metro 10;
#X obj 840 -524 tgl 15 0 empty empty empty 17 7 0 10 -262144 -1 -1
1 1;
#X obj 832 -480 metro 10;
#X obj 912 -511 tgl 15 0 empty empty empty 17 7 0 10 -262144 -1 -1
1 1;
#X obj 913 -478 metro 10;
#X obj 998 -366 +;
#X obj 1038 -363 +;
#X obj 1077 -359 +;
#X obj 1002 -456 tgl 15 0 empty empty empty 17 7 0 10 -262144 -1 -1
0 1;
#X obj 1002 -426 metro 10;
#X obj 1073 -455 tgl 15 0 empty empty empty 17 7 0 10 -262144 -1 -1
0 1;
#X obj 1064 -424 metro 10;
#X obj 1131 -461 tgl 15 0 empty empty empty 17 7 0 10 -262144 -1 -1
0 1;
#X obj 1131 -431 metro 10;
#X obj 1005 -400 0;
#X obj 1055 -396 0;
#X obj 1109 -396 0;
#X obj 491 -378 -;
#X floatatom 483 -424 5 0 0 0 - - -;
#X obj 335 -141 * \$1;
#X obj 758 -130 * \$1;
#X msg 408 -127 0.06;
#X msg 795 -157 0.04;
#X msg 804 -127 0.06;
#X msg 362 -170 0.1;
#X msg 399 -157 0.12;
#X msg 758 -170 0.02;
#X msg 445 -448 160;
#X msg 579 -453 80;
#X msg 783 -462 80;
#X obj 786 173 value iou;
#X obj 76 399 openpanel;
#X msg 75 424 open \$1;
#X msg 86 459 auto \$1;
#X obj 61 494 pix_film;
#X obj 83 375 bng 15 250 50 0 empty empty empty 17 7 0 10 -262144 -1
-1;
#X obj 136 438 tgl 15 0 empty empty empty 17 7 0 10 -262144 -1 -1 0
1;
#X obj 1612 -183 tgl 15 0 empty empty empty 17 7 0 10 -262144 -1 -1
0 1;
#X obj -80 426 gemhead 2;
#X obj -13 906 part_head;
#X obj 323 768 tgl 15 0 empty empty empty 17 7 0 10 -262144 -1 -1 0
1;
#X obj 351 866 tgl 15 0 empty empty empty 17 7 0 10 -262144 -1 -1 0
1;
#X obj 348 902 tgl 15 0 empty empty empty 17 7 0 10 -262144 -1 -1 0
1;
#X obj 320 988 tgl 15 0 empty empty empty 17 7 0 10 -262144 -1 -1 0
1;
#X obj 296 528 tgl 15 0 empty empty empty 17 7 0 10 -262144 -1 -1 0
1;
#X obj 316 815 tgl 15 0 empty empty empty 17 7 0 10 -262144 -1 -1 0
1;
#X obj 361 823 pix_halftone 1 1 1;
#X obj 400 920 pix_dot 1000;
#X obj 362 1257 translateXYZ 0 0 2;
#X obj -18 835 gemhead;
#X floatatom 166 938 5 0 0 0 - - -;
#X obj -14 969 part_color;
#X obj -16 1062 part_source 3;
#X obj 940 564 gemmouse;
#X floatatom 902 626 5 0 0 0 - - -;
#X floatatom 946 628 5 0 0 0 - - -;
#X floatatom 994 630 5 0 0 0 - - -;
#X floatatom 1047 631 5 0 0 0 - - -;
#X floatatom 1043 588 5 0 0 0 - - -;
#X obj 888 722 spigot;
#X obj 955 738 spigot;
#X obj 945 671 * 0.1;
#X obj 894 666 * 0.6;
#X obj 764 316 expr (sin($f1)*$f2)+3;
#X msg 54 237 dimen 1280 750;
#X obj 1085 748 + 4;
#X obj 1083 700 / -95;
#X obj 1022 713 / 95;
#X obj 1025 743 - 6.8;
#X msg 72 957 0.1 0.4 0.4;
#X obj 13 1323 part_draw;
#X msg 34 1289 draw line;
#X msg 113 1289 draw point;
#X obj -9 1179 part_killold 45;
#X obj 211 1296 part_render;
#X floatatom 499 981 5 0 0 0 - - -;
#X obj 397 1038 pix_tIIR 2 2;
#X obj 499 1001 * 0.01;
#X obj 499 936 unpack 30 60 10 50 50 -20;
#X floatatom 548 981 5 0 0 0 - - -;
#X obj 548 1001 * 0.01;
#X floatatom 595 981 5 0 0 0 - - -;
#X obj 651 1002 * 0.01;
#X floatatom 700 982 5 0 0 0 - - -;
#X obj 700 1002 * 0.01;
#X floatatom 747 982 5 0 0 0 - - -;
#X obj 747 1002 * 0.01;
#X floatatom 796 982 5 0 0 0 - - -;
#X obj 796 1002 * 0.01;
#X msg 499 890 bang;
#X obj 499 912 pack 30 60 10 50 50 -20;
#X obj 204 1247 spigot;
#X obj 278 1217 tgl 15 0 empty empty empty 17 7 0 10 -262144 -1 -1
0 1;
#X obj 42 1237 spigot;
#X obj -22 490 spigot;
#X obj 18 453 tgl 15 0 empty empty empty 17 7 0 10 -262144 -1 -1 1
1;
#X obj -38 -432 *~ 440;
#X obj -9 1148 part_orbitpoint;
#X obj -4 865 spigot;
#X obj 83 840 tgl 15 0 empty empty empty 17 7 0 10 -262144 -1 -1 0
1;
#X obj 360 1287 sphere 8 30 10;
#X floatatom -224 290 5 0 0 0 - - -;
#X floatatom 127 1123 5 0 0 0 - - -;
#X msg 444 491 0.2 0 0.1;
#X msg 444 516 1 0 0;
#X msg 445 544 0 0 1;
#X obj 369 788 pix_kaleidoscope 10 13 10 10 10 10 10;
#X floatatom 557 708 5 0 0 0 - - -;
#X floatatom 670 712 5 0 0 0 - - -;
#X floatatom 746 712 5 0 0 0 - - -;
#X floatatom 594 713 5 0 0 0 - - -;
#X floatatom 783 713 5 0 0 0 - - -;
#X obj 560 751 f;
#X obj 595 752 f;
#X obj 659 755 f;
#X obj 723 757 f;
#X obj 754 755 f;
#X obj 422 1116 pix_delay;
#X floatatom 490 1084 5 0 0 0 - - -;
#X obj 367 1084 tgl 15 0 empty empty empty 17 7 0 10 -262144 -1 -1
0 1;
#X obj 409 1156 pix_motionblur;
#X obj 506 1142 / 100;
#X floatatom 517 1114 5 0 0 0 - - -;
#X obj 388 883 pix_posterize;
#X floatatom 486 831 5 0 0 0 - - -;
#X obj 441 860 / 255;
#X obj 537 839 hradio 15 1 0 5 empty empty empty 0 -8 0 10 -262144
-1 -1 0;
#X obj 343 1134 tgl 15 0 empty empty empty 17 7 0 10 -262144 -1 -1
0 1;
#X obj 367 746 pix_puzzle;
#X floatatom 662 642 5 0 0 0 - - -;
#X msg 642 587 size 4 3;
#X msg 669 619 5;
#X msg 662 672 move \$1;
#N canvas 640 133 450 300 numkeys 0;
#X obj 73 26 key;
#X obj 73 191 outlet;
#X msg 73 125 5;
#X msg 101 125 8;
#X msg 129 125 4;
#X obj 73 100 select 53 56 52 54 50;
#X msg 158 125 6;
#X msg 186 125 2;
#X connect 0 0 5 0;
#X connect 2 0 1 0;
#X connect 3 0 1 0;
#X connect 4 0 1 0;
#X connect 5 0 2 0;
#X connect 5 1 3 0;
#X connect 5 2 4 0;
#X connect 5 3 6 0;
#X connect 5 4 7 0;
#X connect 6 0 1 0;
#X connect 7 0 1 0;
#X restore 587 620 pd numkeys;
#X obj 300 748 tgl 15 0 empty empty empty 17 7 0 10 -262144 -1 -1 0
1;
#X obj 321 579 pix_roll;
#X obj 343 530 tgl 15 0 empty empty empty 17 7 0 10 -262144 -1 -1 0
1;
#X floatatom 396 552 5 0 0 0 - - -;
#X msg 337 555 axis \$1;
#X msg 51 1121 0.1 0.2 0.3;
#X obj 1156 364 gemkeyboard;
#X obj 1085 297 gemkeyname;
#X floatatom 1089 341 5 0 0 0 - - -;
#X symbolatom 1156 339 10 0 0 0 - - -;
#X obj 660 321 r nbf;
#X obj 99 -69 loadbang;
#X obj 99 -47 s ldbng;
#X obj 128 78 bng 15 250 50 0 empty empty empty 0 -6 0 8 -262144 -1
-1;
#X msg 127 32 q;
#X obj 127 53 keyboardkeys/keybang;
#X obj 127 10 r ldbng;
#X obj 155 -67 bng 15 250 50 0 empty empty empty 0 -6 0 8 -262144 -1
-1;
#X obj 84 -17 bng 15 250 50 0 empty empty empty 0 -6 0 8 -262144 -1
-1;
#X floatatom 127 -485 5 0 0 0 - - -;
#X floatatom 181 -488 5 0 0 0 - - -;
#X floatatom 231 -486 5 0 0 0 - - -;
#X obj 131 -516 notein;
#X obj 126 -456 mtof;
#X floatatom 637 163 5 0 0 0 - - -;
#X obj 804 -319 spigot;
#X obj 861 -321 spigot;
#X obj 913 -323 spigot;
#X obj 978 -330 spigot;
#X obj 1027 -320 spigot;
#X obj 1079 -303 spigot;
#X obj 869 -363 tgl 15 0 empty empty empty 17 7 0 10 -262144 -1 -1
1 1;
#X obj 1115 -342 tgl 15 0 empty empty empty 17 7 0 10 -262144 -1 -1
0 1;
#X obj 813 265 * 0.004;
#X obj 948 236 * 0.004;
#X obj 1093 196 * 0.004;
#X obj 899 286 expr (sin($f1)*$f2)+4;
#X obj 1044 247 expr (sin($f1)*$f2)+4;
#X obj 1828 -167 1;
#X obj 1798 -106 1;
#X obj 1836 -132 value rfv;
#X obj 1798 -75 value dcf;
#X floatatom 160 486 5 0 0 0 - - -;
#X floatatom 197 489 5 0 0 0 - - -;
#X floatatom 208 511 5 0 0 0 - - -;
#X obj 1823 -242 1;
#X obj 1831 -207 value wsd;
#X obj 1895 -238 1;
#X obj 1903 -203 value aqz;
#X obj 1905 -166 1;
#X obj 1913 -131 value esd;
#X obj 1978 -198 1;
#X obj 1986 -163 value ite;
#X obj 907 1066 tgl 15 0 empty empty empty 17 7 0 10 -262144 -1 -1
0 1;
#X obj 908 1096 metro 50;
#X obj 1014 1073 bng 15 250 50 0 empty empty empty 17 7 0 10 -262144
-1 -1;
#X floatatom 1003 1178 5 0 0 0 - - -;
#X obj 858 1143 + 0.1;
#X obj 924 1225 list-round;
#X floatatom 986 1203 5 0 0 0 - - -;
#X obj 946 1152 value wsd;
#X obj 899 1305 cube 1 1;
#X obj 1007 1114 -10;
#X obj 914 1259 sel 8;
#X msg 1079 1009 0.1;
#X obj 892 1331 translateXYZ 2.6 0 0;
#X obj 1703 -405 1;
#X obj 1570 -474 1;
#X obj 1633 -474 1;
#X obj 1628 -385 1;
#X obj 1570 -441 value ase;
#X obj 1639 -440 value thv;
#X obj 1701 -375 value iwd;
#X obj 1626 -356 value zmh;
#X obj 480 1226 spigot;
#X obj 537 1187 tgl 15 0 empty empty empty 17 7 0 10 -262144 -1 -1
1 1;
#X obj 1797 -395 1;
#X obj 1795 -365 value tem;
#X obj 1044 1337 cube 0.8 0.8;
#X obj -13 582 rotateXYZ 0 0 0;
#X obj 388 1219 spigot;
#X obj 374 1186 tgl 15 0 empty empty empty 17 7 0 10 -262144 -1 -1
0 1;
#X floatatom 1157 396 5 0 0 0 - - -;
#X obj 1175 436 == 1;
#X obj 355 129 * 0.5;
#X obj 471 130 * 0.01;
#X obj 249 106 tgl 15 0 empty empty empty 17 7 0 10 -262144 -1 -1 0
1;
#X obj 254 232 + 0.05;
#X obj 262 134 metro 50;
#X obj 282 173 value ase;
#X floatatom 1167 468 5 0 0 0 - - -;
#X floatatom 1257 465 5 0 0 0 - - -;
#X floatatom 1308 467 5 0 0 0 - - -;
#X obj 1234 436 == 3;
#X obj 1308 435 == 4;
#X obj 1111 459 + 2;
#X floatatom 1323 550 5 0 0 0 - - -;
#X obj 1323 506 +;
#X obj 1324 586 ==;
#X floatatom 1323 629 5 0 0 0 - - -;
#X msg 1377 507 4;
#X floatatom 1144 548 5 0 0 0 - - -;
#X obj 1144 504 +;
#X obj 1145 584 ==;
#X floatatom 1144 627 5 0 0 0 - - -;
#X floatatom 1235 545 5 0 0 0 - - -;
#X obj 1235 501 +;
#X obj 1236 581 ==;
#X floatatom 1235 624 5 0 0 0 - - -;
#X obj 1296 656 tgl 15 0 empty empty empty 17 7 0 10 -262144 -1 -1
0 1;
#X obj 1236 682 spigot;
#X floatatom 1254 722 5 0 0 0 - - -;
#X obj 1382 674 tgl 15 0 empty empty empty 17 7 0 10 -262144 -1 -1
0 1;
#X obj 1342 706 spigot;
#X floatatom 1102 840 5 0 0 0 - - -;
#X obj 1201 667 tgl 15 0 empty empty empty 17 7 0 10 -262144 -1 -1
0 1;
#X obj 1141 693 spigot;
#X floatatom 1159 733 5 0 0 0 - - -;
#X floatatom 1400 468 5 0 0 0 - - -;
#X floatatom 1415 551 5 0 0 0 - - -;
#X obj 1415 507 +;
#X obj 1416 587 ==;
#X floatatom 1415 630 5 0 0 0 - - -;
#X obj 1474 675 tgl 15 0 empty empty empty 17 7 0 10 -262144 -1 -1
0 1;
#X obj 1434 707 spigot;
#X floatatom 1017 920 5 0 0 0 - - -;
#X obj 1400 437 == 40;
#X obj -253 -456 adc~;
#X obj -254 -398 fiddle~;
#X floatatom -242 -338 5 0 0 0 - - -;
#X floatatom -190 -353 5 0 0 0 - - -;
#X obj -236 -294 mtof;
#X floatatom 41 -42 5 0 0 0 - - -;
#X obj 520 1367 cube 12 12;
#X obj 751 568 pack;
#X obj 805 568 t b f;
#X floatatom 751 529 4 0 100 0 - - -;
#X floatatom 803 529 4 0 100 0 - - -;
#X obj 751 548 * 0.01;
#X obj 803 548 * 0.01;
#X obj 749 660 pack;
#X obj 803 660 t b f;
#X floatatom 749 621 4 0 100 0 - - -;
#X floatatom 801 621 4 0 100 0 - - -;
#X obj 749 640 * 0.01;
#X obj 801 640 * 0.01;
#X obj 390 641 pix_zoom;
#X obj 338 650 tgl 15 0 empty empty empty 17 7 0 10 -262144 -1 -1 0
1;
#X floatatom 474 597 5 0 0 0 - - -;
#X msg 382 585 100 100;
#X obj 223 -435 poly 6 1;
#X obj 245 -405 pack 0 0 0;
#X obj 247 -377 route 1 2 3 4 5 6;
#X obj 206 -336 expr~ $v1+$v2+$v3+$v4+$v5+$v6;
#X floatatom 965 1041 5 0 0 0 - - -;
#X obj 1736 197 value f;
#X obj 1746 137 1;
#X obj -237 728 tgl 15 0 empty empty empty 17 7 0 10 -262144 -1 -1
0 1;
#X obj -236 758 metro 50;
#X obj -84 765 bng 15 250 50 0 empty empty empty 17 7 0 10 -262144
-1 -1;
#X floatatom -95 870 5 0 0 0 - - -;
#X obj -286 805 + 0.1;
#X obj -225 880 list-round;
#X floatatom -112 895 5 0 0 0 - - -;
#X msg -110 835 0.1;
#X floatatom -179 703 5 0 0 0 - - -;
#X floatatom -85 1296 5 0 0 0 - - -;
#X obj -198 814 value aqz;
#X obj -230 921 sel 360;
#X obj -91 806 0;
#X floatatom -209 1073 5 0 0 0 - - -;
#X obj -314 1031 tgl 15 0 empty empty empty 17 7 0 10 -262144 -1 -1
0 1;
#X obj -313 1061 metro 50;
#X floatatom -282 1019 5 0 0 0 - - -;
#X obj -18 939 part_size 1;
#X obj -1 1100 translateXYZ 0 0 0;
#X floatatom -279 1132 5 0 0 0 - - -;
#X msg -168 676 20;
#X msg -269 969 14;
#X msg 172 1082 0 0 0.1;
#X obj -16 1030 part_velocity 0 0 0 0.2;
#X msg 142 994 0.3 0.1 0.4;
#X msg 200 982 0.15 0.35 0.15;
#X obj 134 903 pack 0 0 0;
#X floatatom 128 829 5 0 0 0 - - -;
#X floatatom 168 827 5 0 0 0 - - -;
#X floatatom 212 831 5 0 0 0 - - -;
#X obj 121 862 / 100;
#X obj 166 858 / 100;
#X obj 207 865 / 100;
#X obj 68 633 tgl 15 0 empty empty empty 17 7 0 10 -262144 -1 -1 0
1;
#X obj 63 662 metro 50;
#X msg 137 683;
#X obj 212 605 tgl 15 0 empty empty empty 17 7 0 10 -262144 -1 -1 0
1;
#X obj 207 634 metro 50;
#X msg 281 655;
#X obj -269 523 tgl 15 0 empty empty empty 17 7 0 10 -262144 -1 -1
0 1;
#X obj -274 552 metro 50;
#X obj -292 611 + 0.01;
#X obj 191 721 expr (sin($f1)*50)+50;
#X obj 47 749 expr (sin($f1)*50)+50;
#X obj -290 639 expr (sin($f1)*50)+50;
#X obj 45 721 + 0.02;
#X obj 190 694 + 0.03;
#X obj 14 807 list-round;
#X obj 87 793 list-round;
#X obj 171 785 list-round;
#X obj 60 694 value wsd;
#X obj -277 584 value aqz;
#X obj 204 666 value ite;
#X obj -218 1581 part_draw;
#X msg -197 1547 draw line;
#X msg -118 1547 draw point;
#X obj -240 1437 part_killold 45;
#X obj -20 1554 part_render;
#X obj -27 1505 spigot;
#X obj 47 1475 tgl 15 0 empty empty empty 17 7 0 10 -262144 -1 -1 1
1;
#X obj -189 1495 spigot;
#X obj -240 1406 part_orbitpoint;
#X floatatom -104 1381 5 0 0 0 - - -;
#X msg -180 1379 0.1 0.2 0.3;
#X obj -232 1358 translateXYZ 0 0 0;
#X msg -59 1340 0 0 0.1;
#X obj -247 1288 part_velocity 0 0 0 0.2;
#X obj 238 1877 part_draw;
#X msg 259 1843 draw line;
#X msg 338 1843 draw point;
#X obj 216 1733 part_killold 45;
#X obj 436 1850 part_render;
#X obj 429 1801 spigot;
#X obj 503 1771 tgl 15 0 empty empty empty 17 7 0 10 -262144 -1 -1
0 1;
#X obj 267 1791 spigot;
#X obj 216 1702 part_orbitpoint;
#X floatatom 352 1677 5 0 0 0 - - -;
#X msg 276 1675 0.1 0.2 0.3;
#X obj 224 1654 translateXYZ 0 0 0;
#X msg 397 1636 0 0 0.1;
#X obj 209 1584 part_velocity 0 0 0 0.2;
#X floatatom -157 1739 5 0 0 0 - - -;
#X obj -262 1697 tgl 15 0 empty empty empty 17 7 0 10 -262144 -1 -1
0 1;
#X obj -261 1727 metro 50;
#X floatatom -230 1685 5 0 0 0 - - -;
#X floatatom -135 1862 5 0 0 0 - - -;
#X msg -217 1635 14;
#X floatatom 529 1547 5 0 0 0 - - -;
#X obj 424 1505 tgl 15 0 empty empty empty 17 7 0 10 -262144 -1 -1
0 1;
#X obj 425 1535 metro 50;
#X floatatom 456 1493 5 0 0 0 - - -;
#X floatatom 551 1670 5 0 0 0 - - -;
#X msg 469 1443 14;
#X floatatom -82 1236 5 0 0 0 - - -;
#X obj -262 1267 part_color;
#X obj -266 1237 part_size 1;
#X floatatom 312 1319 5 0 0 0 - - -;
#X obj 206 1538 part_color;
#X obj 202 1445 part_head;
#X obj -225 1140 tgl 15 0 empty empty empty 17 7 0 10 -262144 -1 -1
0 1;
#X obj -237 1174 gemhead;
#X obj -247 1320 part_source 3;
#X obj -271 1208 part_head;
#X obj 209 1616 part_source 3;
#X obj 218 1376 tgl 15 0 empty empty empty 17 7 0 10 -262144 -1 -1
0 1;
#X obj 206 1410 gemhead;
#X obj 18 1767 - 0.4;
#X obj -18 1636 - 0.4;
#X floatatom 109 1665 5 0 0 0 - - -;
#X obj 665 1557 - 0.1;
#X obj 663 1423 - 0.1;
#X floatatom 761 1430 5 0 0 0 - - -;
#X obj -97 1936 tgl 15 0 empty empty empty 17 7 0 10 -262144 -1 -1
0 1;
#X obj -96 1966 metro 50;
#X obj 56 1973 bng 15 250 50 0 empty empty empty 17 7 0 10 -262144
-1 -1;
#X floatatom 45 2078 5 0 0 0 - - -;
#X obj -146 2013 + 0.1;
#X obj -85 2088 list-round;
#X floatatom 28 2103 5 0 0 0 - - -;
#X msg 30 2043 0.1;
#X floatatom -39 1911 5 0 0 0 - - -;
#X obj -90 2129 sel 360;
#X obj 49 2014 0;
#X msg -28 1884 20;
#X obj 299 1939 tgl 15 0 empty empty empty 17 7 0 10 -262144 -1 -1
0 1;
#X obj 300 1969 metro 50;
#X obj 452 1976 bng 15 250 50 0 empty empty empty 17 7 0 10 -262144
-1 -1;
#X floatatom 441 2081 5 0 0 0 - - -;
#X obj 250 2016 + 0.1;
#X obj 311 2091 list-round;
#X floatatom 424 2106 5 0 0 0 - - -;
#X msg 426 2046 0.1;
#X floatatom 357 1914 5 0 0 0 - - -;
#X obj 306 2132 sel 360;
#X obj 445 2017 0;
#X msg 368 1887 20;
#X obj 338 2025 value esd;
#X obj -58 2022 value rfv;
#X obj 203 1502 part_size 1;
#X obj 218 1332 sphere 0.02;
#X obj 456 1892 triangle 0.02;
#X obj 0 1596 square 0.02;
#X obj -170 1678 expr $f1+(cos($f2)*.75);
#X obj -169 1809 expr $f1+(sin($f2)*.75);
#X obj 517 1617 expr $f1+(sin($f2)*.75);
#X obj 508 1486 expr $f1+(cos($f2)*.75);
#X obj -230 1012 expr $f1+(cos($f2)*.75);
#X obj -278 1102 expr $f1+(sin($f2)*.75);
#X obj -10 1245 tgl 15 0 empty empty empty 17 7 0 10 -262144 -1 -1
0 1;
#X obj 106 1403 tgl 15 0 empty empty empty 17 7 0 10 -262144 -1 -1
0 1;
#X connect 1 0 15 0;
#X connect 1 0 18 0;
#X connect 1 0 28 0;
#X connect 1 0 25 0;
#X connect 1 0 227 0;
#X connect 2 0 1 0;
#X connect 3 0 339 0;
#X connect 3 0 345 0;
#X connect 5 0 227 1;
#X connect 6 0 227 1;
#X connect 7 0 58 0;
#X connect 8 0 7 1;
#X connect 9 0 7 2;
#X connect 10 0 7 0;
#X connect 11 0 7 0;
#X connect 12 0 11 0;
#X connect 13 0 7 0;
#X connect 14 0 10 0;
#X connect 15 0 24 0;
#X connect 16 0 100 0;
#X connect 17 0 15 0;
#X connect 18 0 21 0;
#X connect 19 0 41 0;
#X connect 20 0 18 0;
#X connect 21 0 22 0;
#X connect 22 0 9 0;
#X connect 23 0 37 0;
#X connect 24 0 8 0;
#X connect 25 0 26 0;
#X connect 26 0 8 0;
#X connect 27 0 32 0;
#X connect 28 0 29 0;
#X connect 29 0 9 0;
#X connect 30 0 31 0;
#X connect 31 0 28 0;
#X connect 32 0 25 0;
#X connect 33 0 26 1;
#X connect 34 0 8 0;
#X connect 36 0 34 0;
#X connect 36 0 40 0;
#X connect 37 0 40 0;
#X connect 38 0 39 0;
#X connect 40 0 36 0;
#X connect 41 0 20 0;
#X connect 42 0 37 1;
#X connect 43 0 44 0;
#X connect 44 0 46 0;
#X connect 44 0 149 0;
#X connect 45 0 84 0;
#X connect 46 0 45 0;
#X connect 47 0 52 0;
#X connect 48 0 55 1;
#X connect 49 0 54 1;
#X connect 50 0 51 0;
#X connect 50 1 51 0;
#X connect 52 0 53 0;
#X connect 53 0 54 0;
#X connect 53 0 90 0;
#X connect 54 0 55 0;
#X connect 54 0 51 0;
#X connect 55 0 56 0;
#X connect 58 0 99 0;
#X connect 59 0 58 2;
#X connect 60 0 29 1;
#X connect 61 0 58 1;
#X connect 62 0 64 0;
#X connect 63 0 58 0;
#X connect 64 0 61 0;
#X connect 65 0 59 0;
#X connect 66 0 59 1;
#X connect 67 0 59 2;
#X connect 68 0 101 0;
#X connect 69 0 71 0;
#X connect 70 0 72 0;
#X connect 73 0 78 0;
#X connect 74 0 75 0;
#X connect 76 0 79 0;
#X connect 77 0 161 0;
#X connect 77 0 194 0;
#X connect 78 0 73 0;
#X connect 78 0 301 0;
#X connect 79 0 76 0;
#X connect 79 0 302 0;
#X connect 80 0 45 1;
#X connect 80 0 124 1;
#X connect 80 0 126 1;
#X connect 80 0 128 1;
#X connect 80 0 136 0;
#X connect 80 0 137 0;
#X connect 80 0 138 0;
#X connect 80 0 148 1;
#X connect 81 0 83 0;
#X connect 82 0 89 0;
#X connect 83 0 88 0;
#X connect 84 0 83 1;
#X connect 85 0 82 0;
#X connect 85 0 88 0;
#X connect 86 0 87 0;
#X connect 88 0 85 0;
#X connect 89 0 9 0;
#X connect 90 0 95 0;
#X connect 90 0 232 0;
#X connect 91 0 97 0;
#X connect 92 0 8 0;
#X connect 93 0 94 0;
#X connect 95 0 92 1;
#X connect 96 0 98 0;
#X connect 97 0 90 0;
#X connect 97 0 96 0;
#X connect 98 0 92 0;
#X connect 98 0 96 0;
#X connect 99 0 266 0;
#X connect 100 0 17 0;
#X connect 101 0 161 0;
#X connect 102 0 103 0;
#X connect 103 0 105 0;
#X connect 104 0 105 0;
#X connect 105 0 112 0;
#X connect 106 0 102 0;
#X connect 107 0 104 0;
#X connect 108 0 4 0;
#X connect 109 0 4 0;
#X connect 110 0 4 0;
#X connect 111 0 4 0;
#X connect 112 0 7 0;
#X connect 113 0 114 0;
#X connect 113 0 112 2;
#X connect 115 0 99 0;
#X connect 116 0 119 0;
#X connect 117 0 118 0;
#X connect 118 0 76 0;
#X connect 119 0 73 0;
#X connect 120 0 101 1;
#X connect 120 0 353 1;
#X connect 121 0 119 1;
#X connect 122 0 118 1;
#X connect 123 0 268 0;
#X connect 123 0 350 0;
#X connect 123 0 349 0;
#X connect 124 0 290 0;
#X connect 125 0 124 0;
#X connect 126 0 291 0;
#X connect 127 0 126 0;
#X connect 128 0 292 0;
#X connect 129 0 128 0;
#X connect 130 0 131 0;
#X connect 131 0 125 0;
#X connect 132 0 133 0;
#X connect 133 0 127 0;
#X connect 134 0 135 0;
#X connect 135 0 129 0;
#X connect 136 0 293 0;
#X connect 137 0 294 0;
#X connect 138 0 295 0;
#X connect 139 0 140 0;
#X connect 140 0 145 0;
#X connect 141 0 142 0;
#X connect 142 0 146 0;
#X connect 143 0 144 0;
#X connect 144 0 147 0;
#X connect 145 0 136 1;
#X connect 146 0 137 1;
#X connect 147 0 138 1;
#X connect 148 0 42 0;
#X connect 149 0 148 0;
#X connect 150 0 34 1;
#X connect 151 0 82 1;
#X connect 152 0 150 1;
#X connect 153 0 151 1;
#X connect 154 0 151 1;
#X connect 155 0 150 1;
#X connect 156 0 150 1;
#X connect 157 0 151 1;
#X connect 158 0 149 0;
#X connect 159 0 46 0;
#X connect 160 0 125 0;
#X connect 160 0 127 0;
#X connect 160 0 129 0;
#X connect 161 0 77 0;
#X connect 161 0 123 0;
#X connect 162 0 163 0;
#X connect 163 0 165 0;
#X connect 164 0 165 0;
#X connect 165 0 112 1;
#X connect 166 0 162 0;
#X connect 167 0 164 0;
#X connect 168 0 38 0;
#X connect 168 0 69 0;
#X connect 168 0 74 0;
#X connect 169 0 225 0;
#X connect 170 0 439 0;
#X connect 171 0 237 0;
#X connect 172 0 254 0;
#X connect 173 0 178 0;
#X connect 174 0 207 0;
#X connect 175 0 266 0;
#X connect 176 0 177 0;
#X connect 177 0 254 0;
#X connect 178 0 207 0;
#X connect 179 0 231 0;
#X connect 180 0 229 0;
#X connect 182 0 445 0;
#X connect 183 0 440 0;
#X connect 184 0 185 0;
#X connect 184 1 186 0;
#X connect 184 2 187 0;
#X connect 184 3 188 0;
#X connect 184 4 189 0;
#X connect 185 0 193 0;
#X connect 185 0 198 0;
#X connect 186 0 192 0;
#X connect 186 0 197 0;
#X connect 187 0 190 1;
#X connect 187 0 191 1;
#X connect 187 0 224 1;
#X connect 187 0 482 1;
#X connect 187 0 496 1;
#X connect 190 0 8 0;
#X connect 191 0 9 0;
#X connect 192 0 191 0;
#X connect 193 0 190 0;
#X connect 194 0 65 0;
#X connect 195 0 4 0;
#X connect 196 0 565 0;
#X connect 196 0 566 0;
#X connect 196 0 569 0;
#X connect 197 0 196 0;
#X connect 198 0 199 0;
#X connect 199 0 564 0;
#X connect 199 0 567 0;
#X connect 199 0 568 0;
#X connect 200 0 182 2;
#X connect 202 0 201 0;
#X connect 203 0 201 0;
#X connect 204 0 224 0;
#X connect 205 0 561 0;
#X connect 206 0 208 0;
#X connect 207 0 248 0;
#X connect 208 0 207 1;
#X connect 209 0 206 0;
#X connect 209 1 210 0;
#X connect 209 2 212 0;
#X connect 209 3 214 0;
#X connect 209 4 216 0;
#X connect 209 5 218 0;
#X connect 210 0 211 0;
#X connect 211 0 207 2;
#X connect 212 0 213 0;
#X connect 213 0 207 3;
#X connect 214 0 215 0;
#X connect 215 0 207 4;
#X connect 216 0 217 0;
#X connect 217 0 207 5;
#X connect 218 0 219 0;
#X connect 219 0 207 6;
#X connect 220 0 221 0;
#X connect 221 0 209 0;
#X connect 222 0 205 0;
#X connect 223 0 222 1;
#X connect 224 0 201 0;
#X connect 224 0 222 0;
#X connect 225 0 344 0;
#X connect 226 0 225 1;
#X connect 227 0 0 0;
#X connect 227 0 0 1;
#X connect 228 0 204 0;
#X connect 229 0 170 0;
#X connect 230 0 229 1;
#X connect 233 0 228 2;
#X connect 234 0 99 1;
#X connect 235 0 99 2;
#X connect 236 0 99 3;
#X connect 237 0 177 0;
#X connect 238 0 243 0;
#X connect 239 0 245 0;
#X connect 240 0 246 0;
#X connect 241 0 244 0;
#X connect 242 0 247 0;
#X connect 243 0 237 1;
#X connect 244 0 237 2;
#X connect 245 0 237 4;
#X connect 246 0 237 6;
#X connect 247 0 237 7;
#X connect 248 0 251 0;
#X connect 249 0 248 1;
#X connect 250 0 248 0;
#X connect 251 0 3 0;
#X connect 252 0 251 1;
#X connect 253 0 252 0;
#X connect 254 0 178 0;
#X connect 255 0 256 0;
#X connect 256 0 254 1;
#X connect 257 0 256 1;
#X connect 258 0 251 0;
#X connect 259 0 237 0;
#X connect 260 0 263 0;
#X connect 261 0 259 0;
#X connect 262 0 260 0;
#X connect 263 0 259 0;
#X connect 264 0 260 0;
#X connect 265 0 259 0;
#X connect 266 0 411 0;
#X connect 267 0 269 0;
#X connect 268 0 266 1;
#X connect 269 0 266 0;
#X connect 270 0 228 1;
#X connect 271 0 347 0;
#X connect 272 0 273 0;
#X connect 272 1 274 0;
#X connect 273 0 360 0;
#X connect 274 0 271 0;
#X connect 275 0 62 0;
#X connect 276 0 277 0;
#X connect 276 0 283 0;
#X connect 279 0 280 0;
#X connect 280 0 278 0;
#X connect 281 0 279 0;
#X connect 282 0 277 0;
#X connect 284 0 288 0;
#X connect 284 0 415 0;
#X connect 284 0 415 1;
#X connect 287 0 284 0;
#X connect 287 1 285 0;
#X connect 287 2 286 0;
#X connect 288 0 289 0;
#X connect 289 0 80 0;
#X connect 289 0 150 0;
#X connect 289 0 151 0;
#X connect 289 0 298 0;
#X connect 289 0 299 0;
#X connect 289 0 300 0;
#X connect 290 0 120 0;
#X connect 291 0 121 0;
#X connect 292 0 122 0;
#X connect 293 0 120 0;
#X connect 294 0 121 0;
#X connect 295 0 122 0;
#X connect 296 0 290 1;
#X connect 296 0 291 1;
#X connect 296 0 292 1;
#X connect 297 0 293 1;
#X connect 297 0 294 1;
#X connect 297 0 295 1;
#X connect 298 0 194 1;
#X connect 299 0 301 1;
#X connect 300 0 302 1;
#X connect 301 0 66 0;
#X connect 302 0 67 0;
#X connect 303 0 305 0;
#X connect 304 0 306 0;
#X connect 307 0 344 1;
#X connect 308 0 344 2;
#X connect 309 0 344 3;
#X connect 310 0 311 0;
#X connect 312 0 313 0;
#X connect 314 0 315 0;
#X connect 316 0 317 0;
#X connect 318 0 319 0;
#X connect 319 0 325 0;
#X connect 320 0 327 0;
#X connect 322 0 325 0;
#X connect 323 0 328 0;
#X connect 324 0 323 1;
#X connect 325 0 321 0;
#X connect 325 0 322 0;
#X connect 325 0 323 0;
#X connect 326 0 330 0;
#X connect 327 0 325 0;
#X connect 328 0 320 0;
#X connect 328 1 330 3;
#X connect 329 0 324 0;
#X connect 331 0 337 0;
#X connect 332 0 335 0;
#X connect 333 0 336 0;
#X connect 334 0 338 0;
#X connect 339 0 326 0;
#X connect 339 0 343 0;
#X connect 339 0 398 0;
#X connect 340 0 339 1;
#X connect 341 0 342 0;
#X connect 344 0 105 0;
#X connect 344 0 165 0;
#X connect 345 0 179 0;
#X connect 346 0 345 1;
#X connect 347 0 348 0;
#X connect 347 0 358 0;
#X connect 347 0 359 0;
#X connect 347 0 391 0;
#X connect 348 0 355 0;
#X connect 351 0 353 0;
#X connect 352 0 354 0;
#X connect 353 0 354 0;
#X connect 354 0 352 0;
#X connect 354 0 307 0;
#X connect 354 0 308 0;
#X connect 354 0 309 0;
#X connect 355 0 367 1;
#X connect 355 0 380 0;
#X connect 356 0 371 1;
#X connect 356 0 374 0;
#X connect 357 0 362 1;
#X connect 357 0 377 0;
#X connect 358 0 356 0;
#X connect 359 0 357 0;
#X connect 360 0 362 0;
#X connect 360 0 367 0;
#X connect 360 0 371 0;
#X connect 360 0 385 0;
#X connect 361 0 363 0;
#X connect 362 0 361 0;
#X connect 363 0 364 0;
#X connect 364 0 378 0;
#X connect 365 0 363 1;
#X connect 365 0 372 1;
#X connect 365 0 368 1;
#X connect 365 0 386 1;
#X connect 366 0 368 0;
#X connect 367 0 366 0;
#X connect 368 0 369 0;
#X connect 369 0 381 0;
#X connect 370 0 372 0;
#X connect 371 0 370 0;
#X connect 372 0 373 0;
#X connect 373 0 375 0;
#X connect 374 0 375 1;
#X connect 375 0 376 0;
#X connect 376 0 63 0;
#X connect 377 0 378 1;
#X connect 378 0 379 0;
#X connect 379 0 171 0;
#X connect 380 0 381 1;
#X connect 381 0 382 0;
#X connect 382 0 13 0;
#X connect 383 0 385 1;
#X connect 383 0 388 0;
#X connect 384 0 386 0;
#X connect 385 0 384 0;
#X connect 386 0 387 0;
#X connect 387 0 389 0;
#X connect 388 0 389 1;
#X connect 389 0 390 0;
#X connect 390 0 174 0;
#X connect 391 0 383 0;
#X connect 392 0 393 0;
#X connect 392 1 393 0;
#X connect 393 2 394 0;
#X connect 393 3 395 0;
#X connect 394 0 396 0;
#X connect 396 0 397 0;
#X connect 399 0 237 3;
#X connect 400 0 399 0;
#X connect 400 1 399 1;
#X connect 401 0 403 0;
#X connect 402 0 404 0;
#X connect 403 0 399 0;
#X connect 404 0 400 0;
#X connect 405 0 237 5;
#X connect 406 0 405 0;
#X connect 406 1 405 1;
#X connect 407 0 409 0;
#X connect 408 0 410 0;
#X connect 409 0 405 0;
#X connect 410 0 406 0;
#X connect 411 0 259 0;
#X connect 412 0 411 0;
#X connect 414 0 411 1;
#X connect 415 0 416 0;
#X connect 415 1 416 1;
#X connect 415 2 416 2;
#X connect 416 0 417 0;
#X connect 417 0 418 0;
#X connect 417 1 418 1;
#X connect 417 2 418 2;
#X connect 417 3 418 3;
#X connect 417 4 418 4;
#X connect 417 5 418 5;
#X connect 419 0 319 1;
#X connect 421 0 420 0;
#X connect 422 0 423 0;
#X connect 423 0 432 0;
#X connect 424 0 434 0;
#X connect 426 0 432 0;
#X connect 427 0 433 0;
#X connect 428 0 427 1;
#X connect 429 0 428 0;
#X connect 430 0 423 1;
#X connect 431 0 568 1;
#X connect 431 0 569 1;
#X connect 432 0 425 0;
#X connect 432 0 426 0;
#X connect 432 0 427 0;
#X connect 433 0 424 0;
#X connect 433 1 431 0;
#X connect 434 0 432 0;
#X connect 436 0 437 0;
#X connect 437 0 568 0;
#X connect 437 0 569 0;
#X connect 438 0 437 1;
#X connect 439 0 182 0;
#X connect 440 0 228 0;
#X connect 442 0 430 0;
#X connect 443 0 438 0;
#X connect 444 0 228 1;
#X connect 445 0 183 0;
#X connect 446 0 182 2;
#X connect 447 0 182 2;
#X connect 448 0 182 2;
#X connect 448 0 516 2;
#X connect 448 0 519 2;
#X connect 449 0 452 0;
#X connect 450 0 453 0;
#X connect 451 0 454 0;
#X connect 452 0 448 0;
#X connect 453 0 448 1;
#X connect 454 0 448 2;
#X connect 455 0 456 0;
#X connect 456 0 472 0;
#X connect 458 0 459 0;
#X connect 459 0 474 0;
#X connect 461 0 462 0;
#X connect 462 0 473 0;
#X connect 463 0 466 0;
#X connect 463 0 473 0;
#X connect 464 0 471 0;
#X connect 465 0 470 0;
#X connect 466 0 469 0;
#X connect 467 0 465 0;
#X connect 467 0 472 0;
#X connect 468 0 464 0;
#X connect 468 0 474 0;
#X connect 469 0 449 0;
#X connect 470 0 450 0;
#X connect 471 0 451 0;
#X connect 472 0 467 0;
#X connect 473 0 463 0;
#X connect 474 0 468 0;
#X connect 476 0 475 0;
#X connect 477 0 475 0;
#X connect 478 0 482 0;
#X connect 479 0 563 0;
#X connect 480 0 479 0;
#X connect 481 0 480 1;
#X connect 482 0 475 0;
#X connect 482 0 480 0;
#X connect 483 0 478 0;
#X connect 484 0 483 2;
#X connect 485 0 483 1;
#X connect 486 0 483 0;
#X connect 487 0 483 1;
#X connect 488 0 523 0;
#X connect 490 0 489 0;
#X connect 491 0 489 0;
#X connect 492 0 496 0;
#X connect 493 0 562 0;
#X connect 494 0 493 0;
#X connect 495 0 494 1;
#X connect 496 0 489 0;
#X connect 496 0 494 0;
#X connect 497 0 492 0;
#X connect 498 0 497 2;
#X connect 499 0 497 1;
#X connect 500 0 497 0;
#X connect 501 0 497 1;
#X connect 502 0 525 0;
#X connect 503 0 486 1;
#X connect 504 0 505 0;
#X connect 505 0 564 0;
#X connect 505 0 565 0;
#X connect 506 0 505 1;
#X connect 507 0 486 2;
#X connect 508 0 506 0;
#X connect 509 0 500 1;
#X connect 510 0 511 0;
#X connect 511 0 566 0;
#X connect 511 0 567 0;
#X connect 512 0 511 1;
#X connect 513 0 500 2;
#X connect 514 0 512 0;
#X connect 516 0 488 0;
#X connect 517 0 516 0;
#X connect 519 0 502 0;
#X connect 520 0 560 0;
#X connect 521 0 522 0;
#X connect 522 0 524 0;
#X connect 523 0 486 0;
#X connect 524 0 517 0;
#X connect 525 0 500 0;
#X connect 526 0 527 0;
#X connect 527 0 520 0;
#X connect 528 0 565 1;
#X connect 529 0 564 1;
#X connect 530 0 529 1;
#X connect 530 0 528 1;
#X connect 531 0 566 1;
#X connect 532 0 567 1;
#X connect 533 0 532 1;
#X connect 533 0 531 1;
#X connect 534 0 535 0;
#X connect 535 0 559 0;
#X connect 536 0 544 0;
#X connect 538 0 559 0;
#X connect 539 0 543 0;
#X connect 540 0 539 1;
#X connect 541 0 540 0;
#X connect 542 0 535 1;
#X connect 543 0 536 0;
#X connect 543 1 529 0;
#X connect 543 1 528 0;
#X connect 544 0 559 0;
#X connect 545 0 542 0;
#X connect 546 0 547 0;
#X connect 547 0 558 0;
#X connect 548 0 556 0;
#X connect 550 0 558 0;
#X connect 551 0 555 0;
#X connect 552 0 551 1;
#X connect 553 0 552 0;
#X connect 554 0 547 1;
#X connect 555 0 548 0;
#X connect 555 1 532 0;
#X connect 555 1 531 0;
#X connect 556 0 558 0;
#X connect 557 0 554 0;
#X connect 558 0 549 0;
#X connect 558 0 550 0;
#X connect 558 0 551 0;
#X connect 559 0 537 0;
#X connect 559 0 538 0;
#X connect 559 0 539 0;
#X connect 560 0 519 0;
#X connect 564 0 503 0;
#X connect 565 0 507 0;
#X connect 566 0 513 0;
#X connect 567 0 509 0;
#X connect 568 0 435 0;
#X connect 568 0 440 1;
#X connect 569 0 441 0;
#X connect 569 0 440 2;
#X connect 570 0 534 0;
#X connect 570 0 546 0;
#X connect 570 0 422 0;
#X connect 571 0 526 0;
#X connect 571 0 521 0;
#X connect 571 0 230 0;
