#N canvas 15 22 1247 741 12;
#X obj 84 251 bng 15 250 50 0 empty empty empty 20 8 0 8 -262144 -1
-1;
#X obj 81 336 bng 15 250 50 0 empty empty empty 20 8 0 8 -262144 -1
-1;
#X obj 162 335 bng 15 250 50 0 empty empty empty 20 8 0 8 -262144 -1
-1;
#X obj 199 337 bng 15 250 50 0 empty empty empty 20 8 0 8 -262144 -1
-1;
#X msg 81 358 1;
#X obj 55 405 s state;
#X obj 66 173 bng 20 250 50 0 empty empty empty 20 8 0 8 -262144 -1
-1;
#X obj 105 164 r state;
#X obj 370 256 bng 15 250 50 0 empty empty empty 20 8 0 8 -262144 -1
-1;
#X obj 367 341 bng 15 250 50 0 empty empty empty 20 8 0 8 -262144 -1
-1;
#X obj 449 343 bng 15 250 50 0 empty empty empty 20 8 0 8 -262144 -1
-1;
#X obj 488 346 bng 15 250 50 0 empty empty empty 20 8 0 8 -262144 -1
-1;
#X msg 367 364 1;
#X obj 324 436 s state;
#X obj 619 259 bng 15 250 50 0 empty empty empty 20 8 0 8 -262144 -1
-1;
#X obj 619 344 bng 15 250 50 0 empty empty empty 20 8 0 8 -262144 -1
-1;
#X obj 699 343 bng 15 250 50 0 empty empty empty 20 8 0 8 -262144 -1
-1;
#X obj 738 346 bng 15 250 50 0 empty empty empty 20 8 0 8 -262144 -1
-1;
#X msg 619 367 1;
#X msg 699 368 2;
#X msg 738 369 3;
#X obj 618 400 s state;
#X msg 236 186 \; state 1;
#X obj 83 199 f 1;
#X obj 84 279 random 100;
#X obj 162 309 moses 60;
#X obj 370 283 random 100;
#X obj 370 313 moses 10;
#X obj 449 314 moses 60;
#X obj 619 286 random 100;
#X floatatom 134 188 3 0 0 0 - - -;
#X text 236 166 reset;
#X text 49 152 STEP;
#X floatatom 175 537 5 0 0 0 - - -;
#X floatatom 462 545 5 0 0 0 - - -;
#X floatatom 726 550 5 0 0 0 - - -;
#X obj 557 346 bng 15 250 50 0 empty empty empty 20 8 0 8 -262144 -1
-1;
#X msg 557 370 4;
#X obj 277 338 bng 15 250 50 0 empty empty empty 20 8 0 8 -262144 -1
-1;
#X obj 791 313 moses 90;
#X obj 818 345 bng 15 250 50 0 empty empty empty 20 8 0 8 -262144 -1
-1;
#X msg 818 369 4;
#X obj 903 255 bng 15 250 50 0 empty empty empty 20 8 0 8 -262144 -1
-1;
#X obj 903 340 bng 15 250 50 0 empty empty empty 20 8 0 8 -262144 -1
-1;
#X obj 983 339 bng 15 250 50 0 empty empty empty 20 8 0 8 -262144 -1
-1;
#X obj 1022 342 bng 15 250 50 0 empty empty empty 20 8 0 8 -262144
-1 -1;
#X msg 903 363 1;
#X msg 983 364 2;
#X msg 1022 365 3;
#X obj 902 396 s state;
#X obj 903 282 random 100;
#X floatatom 1017 547 5 0 0 0 - - -;
#X obj 1102 341 bng 15 250 50 0 empty empty empty 20 8 0 8 -262144
-1 -1;
#X msg 1101 365 4;
#X obj 87 226 sel 1 2 3 4;
#X floatatom 32 234 5 0 0 0 - - -;
#X obj 178 572 mtof;
#X obj 463 572 mtof;
#X floatatom 442 606 5 0 0 0 - - -;
#X obj 723 573 mtof;
#X obj 1018 573 mtof;
#X obj 140 49 tgl 15 0 empty empty empty 17 7 0 10 -262144 -1 -1 0
1;
#X obj 139 76 metro;
#X obj 172 -26 tgl 15 0 empty empty empty 17 7 0 10 -262144 -1 -1 0
1;
#X floatatom 170 52 5 0 0 0 - - -;
#X obj 648 746 freeverb~;
#X msg 477 774 bypass 1;
#X msg 374 744 bypass 0;
#X msg 481 743 freeze 1;
#X msg 373 772 freeze 0;
#X obj 312 652 *~;
#X obj 340 603 line;
#X floatatom 384 650 5 0 0 0 - - -;
#X obj 573 636 *~;
#X obj 577 550 line;
#X obj 628 524 1000;
#X floatatom 604 594 5 0 0 0 - - -;
#X obj 835 657 *~;
#X obj 839 571 line;
#X floatatom 866 615 5 0 0 0 - - -;
#X obj 1144 660 *~;
#X obj 1148 574 line;
#X obj 1199 548 1000;
#X floatatom 1175 618 5 0 0 0 - - -;
#X obj 890 545 2000;
#X obj 555 693 *~;
#X obj 317 559 / 200;
#X obj 568 517 / 200;
#X obj 379 532 2000;
#X obj 83 308 moses 10;
#X obj 619 315 moses 10;
#X obj 699 316 moses 60;
#X obj 903 311 moses 10;
#X obj 983 311 moses 60;
#X obj 1075 309 moses 90;
#X obj 250 306 moses 70;
#X obj 530 314 moses 80;
#X msg 162 360 2;
#X msg 199 361 3;
#X msg 277 362 4;
#X msg 444 369 2;
#X msg 487 370 3;
#X obj 171 27 random 1000;
#X text 892 423 comment;
#X text 608 427 comment;
#X obj 1155 -124 noise~;
#X obj 1225 -128 line~;
#X obj 1155 -88 *~;
#X floatatom 1189 -95 5 0 0 0 - - -;
#X obj 1294 -123 tabwrite~ line;
#X obj 1293 -91 tabwrite~ noise;
#X msg 622 645 0;
#X obj 1153 -12 *~ 0;
#X floatatom 1206 -33 5 0 0 0 - - -;
#X obj 1289 -49 tabwrite~ noise_and_line;
#X obj 1766 -35 bng 15 250 50 0 empty empty empty 17 7 0 10 -262144
-1 -1;
#N canvas 0 22 450 300 (subpatch) 0;
#X array line 100 float 3;
#A 0 1 0.99954 0.999081 0.998621 0.998162 0.997702 0.997243 0.996783
0.996324 0.995864 0.995404 0.994945 0.994485 0.994026 0.993566 0.993107
0.992647 0.992188 0.991728 0.991269 0.990809 0.990349 0.98989 0.98943
0.988971 0.988511 0.988052 0.987592 0.987133 0.986673 0.986213 0.985754
0.985294 0.984835 0.984375 0.983916 0.983456 0.982997 0.982537 0.982077
0.981618 0.981158 0.980699 0.980239 0.97978 0.97932 0.978861 0.978401
0.977942 0.977482 0.977022 0.976563 0.976103 0.975644 0.975184 0.974725
0.974265 0.973806 0.973346 0.972886 0.972427 0.971967 0.971508 0.971048
0.970588 0.970129 0.969669 0.96921 0.96875 0.96829 0.967831 0.967371
0.966912 0.966452 0.965993 0.965533 0.965074 0.964614 0.964154 0.963695
0.963235 0.962776 0.962316 0.961857 0.961397 0.960938 0.960478 0.960019
0.959559 0.959099 0.95864 0.95818 0.957721 0.957261 0.956802 0.956342
0.955883 0.955423 0.954963 0.954504;
#X coords 0 2 150 0 200 140 1;
#X restore 1478 -250 graph;
#N canvas 0 22 450 300 (subpatch) 0;
#X array noise 100 float 3;
#A 0 -0.613671 -0.791685 0.92439 0.0370202 -0.0934883 -0.743791 -0.600837
0.358265 0.0699799 -0.217985 0.879656 0.193486 -0.890219 0.118236 -0.148398
0.800236 -0.919261 -0.837681 0.442824 -0.256804 -0.124917 0.486026
0.188858 -0.746447 -0.261935 -0.0551906 -0.701416 -0.911628 -0.716406
-0.21281 -0.580158 -0.110029 -0.990147 -0.735872 -0.0949333 -0.954703
0.314929 -0.261597 -0.423096 -0.954697 0.0124353 0.293982 -0.00615998
0.344318 0.347139 -0.154597 0.215828 0.719428 0.510583 -0.25286 -0.930092
-0.870155 -0.343286 0.902988 0.915839 0.0762871 -0.582495 -0.624568
0.911714 0.46035 -0.0814193 0.495023 -0.220403 0.943883 -0.705155 -0.530247
0.0711378 -0.191635 0.706103 0.494431 -0.0667978 -0.68572 0.852687
0.360058 0.373496 0.560489 -0.0089171 0.5632 0.0261897 0.843607 -0.550448
-0.0846348 -0.582456 -0.482621 0.643759 -0.347621 0.731533 0.352054
-0.407603 -0.956243 -0.924526 0.393759 0.93281 -0.497919 -0.754355
-0.676125 -0.563382 -0.807624 -0.00708436 -0.681588;
#X coords 0 25 99 -25 200 140 1;
#X restore 1476 -88 graph;
#N canvas 0 22 450 300 (subpatch) 0;
#X array noise_and_line 100 float 3;
#A 0 -0.0464595 -0.107931 0.085851 0.23437 0.332198 0.315527 0.289166
0.404203 0.521073 0.584876 0.769104 0.873628 0.783605 0.774494 0.764269
0.884773 0.802405 0.672844 0.725906 0.7482 0.775881 0.884567 0.964081
0.892308 0.842503 0.839566 0.770812 0.665928 0.598921 0.632505 0.654844
0.736439 0.711915 0.690022 0.762392 0.74541 0.868689 0.944923 0.96586
0.889552 0.917794 1.01501 1.07574 1.15152 1.21108 1.17794 1.1562 1.20031
1.22327 1.12299 0.898014 0.672882 0.560012 0.676342 0.857458 0.913556
0.819507 0.676881 0.741882 0.80934 0.788284 0.807474 0.738117 0.794962
0.666099 0.510138 0.4501 0.402144 0.48403 0.568543 0.5598 0.431955
0.48036 0.516866 0.537619 0.565691 0.509216 0.498476 0.429698 0.451299
0.314686 0.199846 0.0475505 -0.0772161 -0.0207202 -0.0349473 0.0659849
0.138939 0.084605 -0.082002 -0.255965 -0.227843 -0.0591753 -0.0571549
-0.154658 -0.262923 -0.340345 -0.421795 -0.384353 -0.395;
#X coords 0 1 99 -1 200 140 1;
#X restore 1250 27 graph;
#X obj 658 -37 noise~;
#X obj 728 -41 line~;
#X obj 658 -1 *~;
#X floatatom 714 -6 5 0 0 0 - - -;
#X obj 655 67 *~ 0;
#X floatatom 709 54 5 0 0 0 - - -;
#X floatatom 770 -4 5 0 0 0 - - -;
#X obj 758 88 tabwrite~ bp;
#N canvas 0 22 450 300 (subpatch) 0;
#X array bp 100 float 3;
#A 0 0.0413782 -0.0409294 -0.000442996 -0.0171235 0.0529058 0.0678396
-0.00689314 0.0281359 0.0409475 -0.0316415 -0.100767 -0.0549433 0.0307423
-0.0157454 0.0507106 0.0488279 -0.00548263 0.040935 -0.0782807 0.0449726
-0.0453453 0.0652147 0.0197399 -0.0680475 0.00421708 -0.0800662 -0.0149459
0.0405463 0.0444917 -0.0134683 -0.00836922 -0.0416816 -0.0139602 -0.02772
0.0200447 -0.0252258 -0.0350981 0.0322598 -0.0620192 0.0707778 -0.0400764
0.0668519 -0.0455052 0.0807716 -0.0569162 -0.00293481 0.0296165 0.0518013
-0.0504643 0.0536489 0.00954951 -0.00842729 0.0577962 -0.02901 -0.0845646
-0.0230576 -0.0523558 -0.0277984 -0.00240022 -0.00122339 0.0570782
-0.0458373 0.0727933 -0.0552331 -0.059756 -0.0104671 -0.0150925 0.0783746
0.0829099 0.0383731 -0.0148509 -0.0320823 0.0548772 -0.0306013 0.0259547
-0.0789919 -0.0154078 -0.0566874 0.0494948 -0.00368908 0.0308579 0.0700995
-0.0660453 0.0768661 -0.00548061 -0.0565364 0.0405004 0.0304391 0.0129914
0.0455025 0.0526826 -0.00785403 0.0278963 -0.0786928 0.00216633 -0.0311287
0.038287 0.00968947 -0.0843465 -0.0148267;
#X coords 0 1 99 -1 200 140 1;
#X restore 799 -161 graph;
#X obj 1859 -76 bng 15 250 50 0 empty empty empty 17 7 0 10 -262144
-1 -1;
#X obj 438 -146 line~;
#X obj 368 -106 *~;
#X floatatom 424 -111 5 0 0 0 - - -;
#X obj 370 -20 *~ 0;
#X floatatom 423 -51 5 0 0 0 - - -;
#X obj 367 -77 bp~ 400 1;
#X floatatom 480 -109 5 0 0 0 - - -;
#X obj 1695 -72 bng 15 250 50 0 empty empty empty 17 7 0 10 -262144
-1 -1;
#X obj 452 4 tabwrite~ bass;
#N canvas 0 22 450 300 (subpatch) 0;
#X array bass 100 float 3;
#A 0 -0.000508129 -0.0017955 -0.00409722 -0.00761538 -0.012522 -0.0189615
-0.0270533 -0.0368937 -0.0485585 -0.0621044 -0.0775707 -0.0949816 -0.114347
-0.135664 -0.158919 -0.184086 -0.211133 -0.240018 -0.270691 -0.303097
-0.337175 -0.372859 -0.410077 -0.448756 -0.488818 -0.530183 -0.572769
-0.61649 -0.661261 -0.706996 -0.753606 -0.801004 -0.8491 -0.897807
-0.947035 -0.996698 -1.04671 -1.09698 -1.14742 -1.19795 -1.24849 -1.29896
-1.34926 -1.39933 -1.44909 -1.49845 -1.54735 -1.59571 -1.64346 -1.69053
-1.73686 -1.78237 -1.82701 -1.87071 -1.91341 -1.95505 -1.99558 -2.03495
-2.0731 -2.10999 -2.14556 -2.17976 -2.21257 -2.24393 -2.2738 -2.30215
-2.32895 -2.35415 -2.37773 -2.39965 -2.4199 -2.43844 -2.45525 -2.47032
-2.48361 -2.49512 -2.50482 -2.51271 -2.51878 -2.52301 -2.52539 -2.52592
-2.5246 -2.52142 -2.51638 -2.50949 -2.50074 -2.49015 -2.47771 -2.46344
-2.44735 -2.42944 -2.40974 -2.38825 -2.36499 -2.33998 -2.31324 -2.28479
-2.25466 -2.22285;
#X coords 0 1 99 -1 200 140 1;
#X restore 507 -260 graph;
#X obj 343 -173 line~;
#X msg 342 -209 200 \, 50 50;
#X obj 988 58 tgl 15 0 empty empty empty 17 7 0 10 -262144 -1 -1 0
1;
#X obj 993 123 float;
#X floatatom 993 183 5 0 0 0 - - -;
#X obj 943 120 + 1;
#X obj 1505 193 hradio 10 1 0 64 empty empty empty 0 -8 0 10 -262144
-1 -1 0;
#X obj 1616 209 select 0 1 2 3 4 5 6 7 8 9 10 11 12 13 14 15 16 17
18 19 20 21 22 23 24 25 26 27 28 29 30 31 32 33 34 35 36 37 38 39 40
41 42 43 44 45 46 47 48 49 50 51 52 53 54 55 56 57 58 59 60 61 62 63
;
#X obj 354 -144 osc~;
#X msg 437 -182 1 \, 0 50;
#X obj 2306 193 vsl 15 128 0 127 0 0 empty empty empty 0 -9 0 10 -262144
-1 -1 0 1;
#X obj 2324 193 vsl 15 128 0 127 0 0 empty empty empty 0 -9 0 10 -262144
-1 -1 0 1;
#X obj 2343 193 vsl 15 128 0 127 0 0 empty empty empty 0 -9 0 10 -262144
-1 -1 0 1;
#X obj 2361 193 vsl 15 128 0 127 0 0 empty empty empty 0 -9 0 10 -262144
-1 -1 0 1;
#X obj 2379 193 vsl 15 128 0 127 0 0 empty empty empty 0 -9 0 10 -262144
-1 -1 0 1;
#X obj 2398 193 vsl 15 128 0 127 0 0 empty empty empty 0 -9 0 10 -262144
-1 -1 0 1;
#X obj 2416 193 vsl 15 128 0 127 0 0 empty empty empty 0 -9 0 10 -262144
-1 -1 0 1;
#X obj 2435 193 vsl 15 128 0 127 0 0 empty empty empty 0 -9 0 10 -262144
-1 -1 0 1;
#X obj 2453 193 vsl 15 128 0 127 0 0 empty empty empty 0 -9 0 10 -262144
-1 -1 0 1;
#X obj 2472 193 vsl 15 128 0 127 0 0 empty empty empty 0 -9 0 10 -262144
-1 -1 0 1;
#X obj 2490 193 vsl 15 128 0 127 0 0 empty empty empty 0 -9 0 10 -262144
-1 -1 0 1;
#X obj 2508 193 vsl 15 128 0 127 0 0 empty empty empty 0 -9 0 10 -262144
-1 -1 0 1;
#X obj 2526 193 vsl 15 128 0 127 0 0 empty empty empty 0 -9 0 10 -262144
-1 -1 0 1;
#X obj 2545 193 vsl 15 128 0 127 0 0 empty empty empty 0 -9 0 10 -262144
-1 -1 0 1;
#X obj 2563 193 vsl 15 128 0 127 0 0 empty empty empty 0 -9 0 10 -262144
-1 -1 0 1;
#X obj 2583 193 vsl 15 128 0 127 0 0 empty empty empty 0 -9 0 10 -262144
-1 -1 0 1;
#X obj 2601 193 vsl 15 128 0 127 0 0 empty empty empty 0 -9 0 10 -262144
-1 -1 0 1;
#X obj 2620 193 vsl 15 128 0 127 0 0 empty empty empty 0 -9 0 10 -262144
-1 -1 0 1;
#X obj 2638 193 vsl 15 128 0 127 0 0 empty empty empty 0 -9 0 10 -262144
-1 -1 0 1;
#X obj 2656 193 vsl 15 128 0 127 0 0 empty empty empty 0 -9 0 10 -262144
-1 -1 0 1;
#X obj 2674 193 vsl 15 128 0 127 0 0 empty empty empty 0 -9 0 10 -262144
-1 -1 0 1;
#X obj 2693 193 vsl 15 128 0 127 0 0 empty empty empty 0 -9 0 10 -262144
-1 -1 0 1;
#X obj 2711 193 vsl 15 128 0 127 0 0 empty empty empty 0 -9 0 10 -262144
-1 -1 0 1;
#X obj 2730 193 vsl 15 128 0 127 0 0 empty empty empty 0 -9 0 10 -262144
-1 -1 0 1;
#X obj 2748 193 vsl 15 128 0 127 0 0 empty empty empty 0 -9 0 10 -262144
-1 -1 0 1;
#X obj 2767 193 vsl 15 128 0 127 0 0 empty empty empty 0 -9 0 10 -262144
-1 -1 0 1;
#X obj 2785 193 vsl 15 128 0 127 0 0 empty empty empty 0 -9 0 10 -262144
-1 -1 0 1;
#X obj 2803 193 vsl 15 128 0 127 0 0 empty empty empty 0 -9 0 10 -262144
-1 -1 0 1;
#X obj 2821 193 vsl 15 128 0 127 0 0 empty empty empty 0 -9 0 10 -262144
-1 -1 0 1;
#X obj 2840 193 vsl 15 128 0 127 0 0 empty empty empty 0 -9 0 10 -262144
-1 -1 0 1;
#X obj 2858 193 vsl 15 128 0 127 0 0 empty empty empty 0 -9 0 10 -262144
-1 -1 0 1;
#X obj 891 25 tgl 15 0 empty empty empty 17 7 0 10 -262144 -1 -1 0
1;
#X msg 621 675 0.2;
#X obj 173 0 metro 250;
#X obj 656 28 hip~ 400;
#X obj 369 -46 clip~;
#X floatatom 240 -140 5 0 0 0 - - -;
#X floatatom 311 -115 5 0 0 0 - - -;
#X obj 1063 -31 clip~;
#X floatatom 1050 -100 5 0 0 0 - - -;
#X floatatom 1098 -94 5 0 0 0 - - -;
#X obj 1154 -59 bp~ 400;
#X floatatom 1232 -89 5 0 0 0 - - -;
#X obj 191 601 osc~ 440;
#X obj 486 605 osc~ 440;
#X obj 752 610 osc~ 440;
#X msg 680 651 0.6;
#X obj 1042 615 osc~ 440;
#X obj 431 426 * 2;
#X obj 707 423 * 2;
#X obj 35 472 * 2.33333;
#X obj 469 449 * 2.33333;
#X obj 744 418 * 2.33333;
#X obj 274 406 * 1.75;
#X obj 537 407 * 1.75;
#X obj 821 414 * 1.75;
#X obj 567 456 * 42;
#X obj 1138 480 * 66;
#X obj 280 480 * 35;
#X floatatom 1087 123 5 0 0 0 - - -;
#X msg 727 -77 1 \, 0 70;
#X msg 1224 -164 1 \, 0 50;
#X obj 1105 -220 +~;
#X obj 1177 -218 osc~ 440;
#X floatatom 1197 -252 5 0 0 0 - - -;
#X obj 1164 -183 *~;
#X floatatom 1272 -217 5 0 0 0 - - -;
#X obj 1024 -226 hip~ 2000;
#X obj 1103 -176 *~ 0.15;
#X msg 970 716 damping 0.6;
#X msg 882 717 width 0.3;
#X msg 878 689 roomsize 0.8;
#X obj 2164 71 *~;
#X floatatom 2210 34 5 0 0 0 - - -;
#X obj 2168 110 dac~;
#X obj 2128 9 mtof;
#X obj 2142 40 osc~;
#X floatatom 724 662 5 0 0 0 - - -;
#X msg 742 698 wet.7;
#X obj 171 488 + 39;
#X obj 160 420 * 2.5;
#X obj 830 477 * 54;
#X obj 460 492 + 52;
#X msg 777 751 dry 0.5;
#X obj 1038 504 + 59;
#X obj 995 160 mod 16;
#X floatatom 2492 90 5 0 0 0 - - -;
#X obj 2491 -86 tgl 15 0 empty empty empty 17 7 0 10 -262144 -1 -1
0 1;
#X obj 2486 -53 metro 200;
#X obj 2417 -302 key;
#X obj 2510 -302 keyname;
#X obj 1697 -277 hradio 10 1 0 64 empty empty empty 0 -8 0 10 -262144
-1 -1 0;
#X obj 1789 -253 select 0 1 2 3 4 5 6 7 8 9 10 11 12 13 14 15 16 17
18 19 20 21 22 23 24 25 26 27 28 29 30 31 32 33 34 35 36 37 38 39 40
41 42 43 44 45 46 47 48 49 50 51 52 53 54 55 56 57 58 59 60 61 62 63
;
#X obj 993 92 metro 400;
#X obj 1899 -131 spigot;
#X floatatom 1893 -81 5 0 0 0 - - -;
#X floatatom 1846 -155 5 0 0 0 - - -;
#X obj 1936 -146 tgl 15 0 empty empty empty 17 7 0 10 -262144 -1 -1
0 1;
#X obj 1956 -122 bng 15 250 50 0 empty empty empty 17 7 0 10 -262144
-1 -1;
#X obj 1955 -146 pipe 250;
#X obj 2487 -5 random 30;
#X obj 2500 49 + 60;
#X obj 1139 541 / 400;
#X obj 831 538 / 400;
#X obj 747 507 + 60;
#X obj 116 933 *~;
#X obj 77 933 *~;
#X obj 116 1023 *~;
#X obj 77 1023 *~;
#X obj 141 978 hsl 128 18 0 1 0 0 empty empty amplitude 5 10 1 14 -225271
-1 -1 0 0;
#X obj 250 840 tgl 15 0 empty empty empty 17 7 0 10 -262144 -1 -1 0
1;
#X obj 245 903 snapshot~;
#X obj 251 879 metro 10;
#X obj 20 972 *~;
#X floatatom 252 941 5 0 0 0 - - -;
#X obj 201 946 / 1000;
#X obj 661 852 dac~;
#X floatatom 580 887 5 0 0 0 - - -;
#X obj 62 891 *~;
#X floatatom 99 852 5 0 0 0 - - -;
#X obj 29 843 osc~;
#X obj 98 879 adc~;
#X floatatom 124 664 5 0 0 0 - - -;
#X obj 122 692 osc~;
#X obj 120 720 *~ 1000;
#X obj 27 729 tgl 15 0 empty empty empty 17 7 0 10 -262144 -1 -1 0
1;
#X obj 28 817 + 20;
#X floatatom 729 759 5 0 0 0 - - -;
#X obj 707 800 lop~;
#X obj 660 798 lop~;
#X msg 786 808 20000;
#X obj 1213 775 grid grid5 200 0 199 200 0 199 1 1 1 10 10 1348 920
;
#X obj 1408 981 * 10;
#X floatatom 1213 1023 5 0 0 0 - - -;
#X floatatom 1410 1015 5 0 0 0 - - -;
#X obj 27 783 random 1000;
#X obj 28 753 metro 500;
#X obj 1212 987 expr $f1*25+20;
#X obj 111 809 osc~;
#X connect 0 0 24 0;
#X connect 0 0 88 0;
#X connect 1 0 4 0;
#X connect 1 0 69 0;
#X connect 2 0 97 0;
#X connect 3 0 98 0;
#X connect 4 0 5 0;
#X connect 4 0 207 0;
#X connect 4 0 228 0;
#X connect 6 0 23 0;
#X connect 7 0 23 1;
#X connect 7 0 30 0;
#X connect 8 0 26 0;
#X connect 8 0 75 0;
#X connect 9 0 12 0;
#X connect 9 0 69 0;
#X connect 10 0 100 0;
#X connect 11 0 101 0;
#X connect 12 0 13 0;
#X connect 12 0 205 0;
#X connect 12 0 231 0;
#X connect 14 0 29 0;
#X connect 14 0 84 0;
#X connect 15 0 18 0;
#X connect 16 0 19 0;
#X connect 17 0 20 0;
#X connect 18 0 21 0;
#X connect 18 0 230 0;
#X connect 18 0 253 0;
#X connect 19 0 21 0;
#X connect 19 0 198 0;
#X connect 19 0 230 0;
#X connect 20 0 21 0;
#X connect 20 0 201 0;
#X connect 20 0 230 0;
#X connect 23 0 54 0;
#X connect 23 0 55 0;
#X connect 24 0 89 0;
#X connect 25 0 2 0;
#X connect 25 1 95 0;
#X connect 26 0 27 0;
#X connect 27 0 9 0;
#X connect 27 1 28 0;
#X connect 28 0 10 0;
#X connect 28 1 96 0;
#X connect 29 0 90 0;
#X connect 33 0 56 0;
#X connect 34 0 57 0;
#X connect 35 0 59 0;
#X connect 36 0 37 0;
#X connect 37 0 13 0;
#X connect 37 0 203 0;
#X connect 37 0 205 0;
#X connect 38 0 99 0;
#X connect 39 0 17 0;
#X connect 39 1 40 0;
#X connect 40 0 41 0;
#X connect 41 0 21 0;
#X connect 41 0 204 0;
#X connect 41 0 230 0;
#X connect 42 0 50 0;
#X connect 42 0 82 0;
#X connect 43 0 46 0;
#X connect 44 0 47 0;
#X connect 45 0 48 0;
#X connect 46 0 49 0;
#X connect 46 0 206 0;
#X connect 46 0 233 0;
#X connect 47 0 49 0;
#X connect 47 0 206 0;
#X connect 47 0 233 0;
#X connect 48 0 49 0;
#X connect 48 0 206 0;
#X connect 48 0 233 0;
#X connect 50 0 92 0;
#X connect 51 0 60 0;
#X connect 52 0 53 0;
#X connect 53 0 49 0;
#X connect 53 0 206 0;
#X connect 53 0 233 0;
#X connect 54 0 0 0;
#X connect 54 1 8 0;
#X connect 54 2 14 0;
#X connect 54 3 42 0;
#X connect 56 0 192 0;
#X connect 57 0 58 0;
#X connect 57 0 193 0;
#X connect 59 0 194 0;
#X connect 60 0 196 0;
#X connect 61 0 62 0;
#X connect 62 0 6 0;
#X connect 63 0 182 0;
#X connect 64 0 62 1;
#X connect 65 0 278 0;
#X connect 65 1 277 0;
#X connect 66 0 65 0;
#X connect 67 0 65 0;
#X connect 68 0 65 0;
#X connect 69 0 65 0;
#X connect 70 0 85 0;
#X connect 71 0 70 1;
#X connect 71 0 72 0;
#X connect 73 0 85 0;
#X connect 74 0 73 1;
#X connect 74 0 76 0;
#X connect 75 0 74 1;
#X connect 77 0 85 0;
#X connect 78 0 77 1;
#X connect 78 0 79 0;
#X connect 80 0 85 0;
#X connect 81 0 80 1;
#X connect 81 0 83 0;
#X connect 82 0 81 1;
#X connect 84 0 78 1;
#X connect 85 0 260 0;
#X connect 85 0 255 0;
#X connect 85 0 65 0;
#X connect 86 0 71 0;
#X connect 87 0 74 0;
#X connect 88 0 71 1;
#X connect 89 0 1 0;
#X connect 89 1 25 0;
#X connect 90 0 15 0;
#X connect 90 1 91 0;
#X connect 91 0 16 0;
#X connect 91 1 39 0;
#X connect 92 0 43 0;
#X connect 92 1 93 0;
#X connect 93 0 44 0;
#X connect 93 1 94 0;
#X connect 94 0 45 0;
#X connect 94 1 52 0;
#X connect 95 0 3 0;
#X connect 95 1 38 0;
#X connect 96 0 11 0;
#X connect 96 1 36 0;
#X connect 97 0 5 0;
#X connect 97 0 207 0;
#X connect 97 0 229 0;
#X connect 98 0 5 0;
#X connect 98 0 69 0;
#X connect 98 0 199 0;
#X connect 98 0 207 0;
#X connect 99 0 5 0;
#X connect 99 0 202 0;
#X connect 99 0 207 0;
#X connect 100 0 13 0;
#X connect 100 0 197 0;
#X connect 100 0 205 0;
#X connect 101 0 13 0;
#X connect 101 0 200 0;
#X connect 101 0 205 0;
#X connect 102 0 64 0;
#X connect 105 0 110 0;
#X connect 105 0 217 0;
#X connect 106 0 107 1;
#X connect 106 0 109 0;
#X connect 107 0 190 0;
#X connect 108 0 190 1;
#X connect 111 0 85 1;
#X connect 112 0 65 0;
#X connect 112 0 114 0;
#X connect 113 0 112 1;
#X connect 115 0 210 0;
#X connect 115 0 109 0;
#X connect 115 0 110 0;
#X connect 115 0 114 0;
#X connect 119 0 121 0;
#X connect 120 0 121 1;
#X connect 121 0 183 0;
#X connect 122 0 183 1;
#X connect 123 0 126 0;
#X connect 123 0 65 0;
#X connect 124 0 123 1;
#X connect 128 0 209 0;
#X connect 128 0 126 0;
#X connect 129 0 130 1;
#X connect 130 0 134 0;
#X connect 131 0 134 1;
#X connect 132 0 137 0;
#X connect 132 0 65 0;
#X connect 133 0 132 1;
#X connect 134 0 184 0;
#X connect 135 0 134 2;
#X connect 136 0 148 0;
#X connect 136 0 137 0;
#X connect 136 0 140 0;
#X connect 139 0 147 0;
#X connect 140 0 139 0;
#X connect 141 0 242 0;
#X connect 142 0 144 0;
#X connect 142 0 234 0;
#X connect 143 0 145 0;
#X connect 143 0 240 0;
#X connect 144 0 142 1;
#X connect 145 0 146 0;
#X connect 147 0 130 0;
#X connect 148 0 129 0;
#X connect 180 0 141 0;
#X connect 180 0 61 0;
#X connect 181 0 85 1;
#X connect 182 0 102 0;
#X connect 183 0 123 0;
#X connect 184 0 132 0;
#X connect 185 0 184 1;
#X connect 186 0 184 2;
#X connect 187 0 112 0;
#X connect 188 0 187 1;
#X connect 189 0 187 2;
#X connect 190 0 187 0;
#X connect 191 0 190 2;
#X connect 192 0 70 0;
#X connect 193 0 73 0;
#X connect 194 0 77 0;
#X connect 195 0 85 1;
#X connect 196 0 80 0;
#X connect 197 0 231 0;
#X connect 198 0 253 0;
#X connect 199 0 228 0;
#X connect 200 0 231 0;
#X connect 201 0 253 0;
#X connect 202 0 228 0;
#X connect 203 0 231 0;
#X connect 204 0 253 0;
#X connect 205 0 87 0;
#X connect 206 0 251 0;
#X connect 207 0 86 0;
#X connect 208 0 234 1;
#X connect 209 0 120 0;
#X connect 210 0 106 0;
#X connect 211 0 216 0;
#X connect 212 0 214 0;
#X connect 213 0 212 0;
#X connect 214 0 211 1;
#X connect 215 0 214 1;
#X connect 216 0 107 0;
#X connect 217 0 211 0;
#X connect 218 0 65 0;
#X connect 219 0 65 0;
#X connect 220 0 65 0;
#X connect 221 0 223 0;
#X connect 221 0 223 1;
#X connect 222 0 221 1;
#X connect 224 0 225 0;
#X connect 225 0 221 0;
#X connect 226 0 85 1;
#X connect 227 0 65 0;
#X connect 228 0 33 0;
#X connect 229 0 228 0;
#X connect 230 0 252 0;
#X connect 231 0 34 0;
#X connect 232 0 65 0;
#X connect 233 0 51 0;
#X connect 234 0 143 0;
#X connect 235 0 149 0;
#X connect 235 0 150 0;
#X connect 235 0 151 0;
#X connect 235 0 152 0;
#X connect 235 0 153 0;
#X connect 235 0 154 0;
#X connect 235 0 155 0;
#X connect 235 0 156 0;
#X connect 235 0 157 0;
#X connect 235 0 158 0;
#X connect 235 0 159 0;
#X connect 235 0 160 0;
#X connect 235 0 161 0;
#X connect 235 0 162 0;
#X connect 235 0 163 0;
#X connect 235 0 164 0;
#X connect 235 0 165 0;
#X connect 235 0 166 0;
#X connect 235 0 167 0;
#X connect 235 0 168 0;
#X connect 236 0 237 0;
#X connect 237 0 249 0;
#X connect 240 0 241 0;
#X connect 241 0 246 0;
#X connect 241 0 248 0;
#X connect 242 0 142 0;
#X connect 243 0 244 0;
#X connect 245 0 243 0;
#X connect 246 0 243 1;
#X connect 247 0 246 0;
#X connect 248 0 247 0;
#X connect 249 0 250 0;
#X connect 250 0 235 0;
#X connect 251 0 81 0;
#X connect 252 0 78 0;
#X connect 253 0 35 0;
#X connect 254 0 256 0;
#X connect 255 0 262 0;
#X connect 255 0 257 0;
#X connect 256 0 65 0;
#X connect 257 0 65 0;
#X connect 258 0 256 1;
#X connect 258 0 257 1;
#X connect 259 0 261 0;
#X connect 260 0 263 0;
#X connect 260 0 264 0;
#X connect 261 0 260 0;
#X connect 264 0 262 1;
#X connect 267 0 254 0;
#X connect 268 0 267 1;
#X connect 269 0 267 0;
#X connect 270 0 254 1;
#X connect 270 0 255 1;
#X connect 270 1 254 1;
#X connect 270 1 255 1;
#X connect 271 0 272 0;
#X connect 272 0 273 0;
#X connect 274 0 285 0;
#X connect 275 0 269 0;
#X connect 275 0 287 0;
#X connect 276 0 277 1;
#X connect 276 0 278 1;
#X connect 277 0 265 1;
#X connect 278 0 265 0;
#X connect 279 0 276 0;
#X connect 280 0 286 0;
#X connect 280 1 281 0;
#X connect 281 0 283 0;
#X connect 284 0 275 0;
#X connect 285 0 284 0;
#X connect 286 0 282 0;
#X connect 287 0 267 1;
